<?xml version="1.0" standalone="no"?>
<!DOCTYPE svg PUBLIC "-//W3C//DTD SVG 1.1//EN" "http://www.w3.org/Graphics/SVG/1.1/DTD/svg11.dtd" >
<!--
2013-9-30: Created.
-->
<svg>
<metadata>
Created by iconfont
</metadata>
<defs>

<font id="mf" horiz-adv-x="1024" >
  <font-face
    font-family="mf"
    font-weight="500"
    font-stretch="normal"
    units-per-em="1024"
    ascent="896"
    descent="-128"
  />
    <missing-glyph />
    
    <glyph glyph-name="x" unicode="x" horiz-adv-x="1001"
d="M281 543q-27 -1 -53 -1h-83q-18 0 -36.5 -6t-32.5 -18.5t-23 -32t-9 -45.5v-76h912v41q0 16 -0.5 30t-0.5 18q0 13 -5 29t-17 29.5t-31.5 22.5t-49.5 9h-133v-97h-438v97zM955 310v-52q0 -23 0.5 -52t0.5 -58t-10.5 -47.5t-26 -30t-33 -16t-31.5 -4.5q-14 -1 -29.5 -0.5
t-29.5 0.5h-32l-45 128h-439l-44 -128h-29h-34q-20 0 -45 1q-25 0 -41 9.5t-25.5 23t-13.5 29.5t-4 30v167h911zM163 247q-12 0 -21 -8.5t-9 -21.5t9 -21.5t21 -8.5q13 0 22 8.5t9 21.5t-9 21.5t-22 8.5zM316 123q-8 -26 -14 -48q-5 -19 -10.5 -37t-7.5 -25t-3 -15t1 -14.5
t9.5 -10.5t21.5 -4h37h67h81h80h64h36q23 0 34 12t2 38q-5 13 -9.5 30.5t-9.5 34.5q-5 19 -11 39h-368zM336 498v228q0 11 2.5 23t10 21.5t20.5 15.5t34 6h188q31 0 51.5 -14.5t20.5 -52.5v-227h-327z" />
    

    
    <glyph glyph-name="refresh1" unicode="&#59251;" d="M863.488 208.571429q0-2.852571-0.585143-3.986286-36.571429-153.161143-153.161143-248.283429t-273.152-95.158857q-83.419429 0-161.426286 31.414857t-139.154286 89.709714l-73.728-73.728q-10.861714-10.861714-25.709714-10.861714t-25.709714 10.861714-10.861714 25.709714l0 256q0 14.848 10.861714 25.709714t25.709714 10.861714l256 0q14.848 0 25.709714-10.861714t10.861714-25.709714-10.861714-25.709714l-78.299429-78.299429q40.557714-37.705143 92.013714-58.294857t106.861714-20.553143q76.580571 0 142.848 37.156571t106.276571 102.290286q6.290286 9.728 30.281143 66.852571 4.571429 13.129143 17.152 13.129143l109.714286 0q7.424 0 12.873143-5.412571t5.412571-12.873143zM877.787429 665.714286l0-256q0-14.848-10.861714-25.709714t-25.709714-10.861714l-256 0q-14.848 0-25.709714 10.861714t-10.861714 25.709714 10.861714 25.709714l78.848 78.848q-84.553143 78.299429-199.424 78.299429-76.580571 0-142.848-37.156571t-106.276571-102.290286q-6.290286-9.728-30.281143-66.852571-4.571429-13.129143-17.152-13.129143l-113.700571 0q-7.424 0-12.873143 5.412571t-5.412571 12.873143l0 3.986286q37.156571 153.161143 154.294857 248.283429t274.285714 95.158857q83.419429 0 162.304-31.707429t139.995429-89.417143l74.276571 73.728q10.861714 10.861714 25.709714 10.861714t25.709714-10.861714 10.861714-25.709714z"  horiz-adv-x="1025" />

    
    <glyph glyph-name="upload" unicode="&#59044;" d="M955.769524 161.533232c-0.13917 0-4.313236 8.118911-9.275247 18.036795L816.444339 439.655578c-4.962012 9.923-18.093077 18.035772-29.181623 18.030655l-107.787912-0.033769c-11.089569-0.004093-20.163225-9.080819-20.163225-20.174482l0-34.266431c0-11.089569 9.073656-20.170388 20.163225-20.181645l34.267455-0.023536c11.094686-0.002047 24.193005-8.146541 29.116131-18.085914l92.175329-186.263218c4.916986-9.943466-0.128937-18.077727-11.224646-18.077727L677.409772 160.579511c-11.094686 0-20.169365-9.075703-20.169365-20.164249l0-105.501846c0-11.089569-9.074679-20.163225-20.167319-20.163225L383.359666 14.750191c-11.093662 0-20.169365 9.073656-20.169365 20.163225L363.190301 140.414239c0 11.088546-9.074679 20.164249-20.163225 20.164249L193.657116 160.578488c-11.094686 0-16.003486 8.066723-10.918677 17.923208l96.398514 186.870038c5.087878 9.856485 18.319228 17.911952 29.408797 17.906835l33.378202-0.022513c11.095709-0.005117 20.169365 9.063423 20.169365 20.151969l0 33.967626c0 11.095709-9.073656 20.164249-20.169365 20.164249l-107.283422-0.039909c-11.094686 0-24.242124-8.112772-29.226648-18.024515L74.71926 179.383786c-4.978385-9.907651-8.933463-18.014282-8.792247-18.014282 0.14224 0 0.260943-9.074679 0.260943-20.169365l0-183.128831c0-11.094686 9.067516-20.169365 20.162202-20.169365l849.507874 0c11.096732 0 20.169365 9.074679 20.169365 20.169365L956.027397 141.370007C956.020234 152.467763 955.908694 161.533232 955.769524 161.533232L955.769524 161.533232zM326.291926 601.750349l110.674659 0L436.966585 236.55795 585.181231 236.55795 585.181231 601.750349l116.595508 0c11.097756 0 14.150278 6.79373 6.794753 15.093766L524.899286 824.09125c-7.355525 8.299013-19.308765 8.226359-26.567076-0.158612L319.322188 617.002728C312.063877 608.611617 315.20338 601.750349 326.291926 601.750349L326.291926 601.750349zM326.291926 601.750349"  horiz-adv-x="1024" />

    
    <glyph glyph-name="smile" unicode="&#58899;" d="M1011.2 320.4c0 0-167-206.6-498.8-206.6C184.8 113.8 17.8 320.4 17.8 320.4l-15.4-22c0 0 159.4-261.6 512-261.6 346.2 0 512 261.6 512 261.6L1011.2 320.4zM747.4 597.4c38.8 0 70.4 31.4 70.4 70.4 0 38.8-31.4 70.4-70.4 70.4s-70.4-31.4-70.4-70.4S708.6 597.4 747.4 597.4zM281.6 597.4c38.8 0 70.4 31.4 70.4 70.4 0 38.8-31.4 70.4-70.4 70.4-38.8 0-70.4-31.4-70.4-70.4C211.2 628.8 242.6 597.4 281.6 597.4z"  horiz-adv-x="1027" />

    
    <glyph glyph-name="formatindentincrease" unicode="&#59499;" d="M469.333333 341.333333 896 341.333333 896 426.666667 469.333333 426.666667M469.333333 512 896 512 896 597.333333 469.333333 597.333333M128 768 128 682.666667 896 682.666667 896 768M469.333333 170.666667 896 170.666667 896 256 469.333333 256M128 554.666667 128 213.333333 298.666667 384M128 0 896 0 896 85.333333 128 85.333333 128 0Z"  horiz-adv-x="1024" />

    
    <glyph glyph-name="home" unicode="&#58880;" d="M829.868263 429.240685 572.96272 696.415541c-15.971379 16.605077-37.316419 25.722543-60.185497 25.722543-22.870294 0-44.215335-9.117467-60.157522-25.722543L195.684966 429.240685c-26.514362-27.609042-23.101393-51.430491-18.708078-61.381131 3.124703-7.086227 13.65309-26.499766 44.041402-26.499766l37.647256 0 0-205.546815c0-46.662552 33.542206-90.603 81.227676-90.603l109.354866 0L449.248087 262.738667c0 23.331276-3.528518 36.321477 20.322123 36.321477l86.427405 0c23.849425 0 20.306311-12.991417 20.306311-36.321477l0-217.52991 109.354866 0c47.670874 0 81.214296 43.940448 81.214296 90.603L766.873088 341.359788l37.661851 0c30.388312 0 40.930079 19.413539 44.041402 26.499766C852.969656 377.81141 856.381408 401.632859 829.868263 429.240685L829.868263 429.240685zM804.533723 383.672812"  horiz-adv-x="1024" />

    
    <glyph glyph-name="ok-circled2" unicode="&#59030;" d="M640 890.88c-279.893 0-506.88-226.987-506.88-506.88s226.987-506.88 506.88-506.88 506.88 226.987 506.88 506.88-226.987 506.88-506.88 506.88zM640-21.333c-224 0-405.333 181.333-405.333 405.333s181.333 405.333 405.333 405.333 405.333-181.333 405.333-405.333-181.333-405.333-405.333-405.333zM803.413 541.44l-220.587-205.653-113.92 107.093c0 0-38.4 9.387-64.853-17.493-20.48-20.48-20.053-55.040-20.053-55.040l198.827-199.68 304.64 293.547-19.2 60.16-64.853 17.067z"  horiz-adv-x="1280" />

    
    <glyph glyph-name="sousuo" unicode="&#58901;" d="M435.441072 11.491939c-239.325976 0-434.03404 194.707057-434.03404 434.026986 0 239.312875 194.708065 434.021947 434.03404 434.021947s434.039079-194.709072 434.039079-434.021947C869.481159 206.198996 674.767048 11.491939 435.441072 11.491939M435.441072 772.712235c-180.419571 0-327.198349-146.779786-327.198349-327.19331 0-180.413524 146.779786-327.19331 327.198349-327.19331s327.206411 146.779786 327.206411 327.19331C762.647483 625.932449 615.860643 772.712235 435.441072 772.712235M942.376764-127.135374c-16.830977 0-33.65087 6.422214-46.488243 19.253542L669.124811 118.864746c-25.670717 25.669709-25.670717 67.294685 0 92.977495 25.68684 25.663663 67.306778 25.663663 92.981525 0l226.764718-226.746579c25.669709-25.669709 25.669709-67.294685 0-92.976487C976.027634-120.71316 959.207741-127.135374 942.376764-127.135374"  horiz-adv-x="1024" />

    
    <glyph glyph-name="houtui" unicode="&#58884;" d="M523.765 38.608l-365.378 345.069 365.378 345.066c17.831 16.845 18.609 44.942 1.801 62.773-16.831 17.824-44.948 18.621-62.754 1.777l-399.549-377.325c-8.893-8.406-13.922-20.079-13.921-32.293 0-12.222 5.030-23.876 13.922-32.275l399.549-377.342c17.807-16.833 45.923-16.036 62.754 1.789 16.808 17.813 16.010 45.916-1.801 62.761v0zM523.765 38.608zM948.102 38.608l-365.376 345.069 365.376 345.066c17.831 16.845 18.609 44.942 1.801 62.773-16.831 17.824-44.948 18.621-62.754 1.777l-399.549-377.325c-8.89-8.406-13.922-20.079-13.921-32.293 0-12.222 5.032-23.876 13.922-32.275l399.55-377.343c17.807-16.833 45.923-16.036 62.754 1.789 16.807 17.813 16.005 45.916-1.802 62.76v0zM948.102 38.608z"  horiz-adv-x="1024" />

    
    <glyph glyph-name="icongoback" unicode="&#58908;" d="M688.699398 568.288237 476.659097 568.288237 476.659097 766.753357 65.450664 539.938562l411.208433-226.821959L476.659097 497.407909 688.699398 497.407909c115.649973 0 205.603705-92.142583 205.603705-212.647121 0-120.492258-83.530438-212.640981-199.180412-212.640981L296.762891 72.119807c-19.271926 0-32.132838-14.174837-32.132838-35.437094s12.847609-35.437094 32.132838-35.437094l398.360823 0c147.775648 0 263.425621 127.585817 263.425621 283.514145C958.549336 440.70242 836.475046 568.288237 688.699398 568.288237L688.699398 568.288237z"  horiz-adv-x="1024" />

    
    <glyph glyph-name="cloud-sync" unicode="&#59069;" d="M512 725.333333a319.573333 319.573333 0 0 0 313.6-257.706666c110.933333-7.68 198.4-98.986667 198.4-211.626667a213.333333 213.333333 0 0 0-213.333333-213.333333H256a256 256 0 0 0-256 256c0 131.84 99.84 240.64 228.266667 254.293333A319.829333 319.829333 0 0 0 512 725.333333M320 482.56c-61.44-77.226667-55.466667-186.453333 13.653333-255.573333C369.493333 192 418.56 170.666667 469.333333 170.666667v-79.36l120.746667 120.32L469.333333 332.373333V256c-28.16 0-55.466667 11.093333-75.52 31.146667-35.84 35.84-41.386667 92.16-13.226666 134.4L320 482.56m71.253333 30.72l61.866667-61.866667L512 392.96V469.333333c28.16 0 55.466667-11.093333 75.52-31.146666 35.84-35.84 41.386667-92.16 13.226667-134.4l60.586666-61.013334c61.44 77.226667 55.466667 186.453333-13.653333 255.573334C611.84 533.333333 562.773333 554.666667 512 554.666667V634.026667L391.253333 513.28z"  horiz-adv-x="1024" />

    
    <glyph glyph-name="daxietishieps" unicode="&#58926;" d="M827.846939 896H196.149334C87.818493 896 0 808.181507 0 699.850666v-631.701332c0-108.330842 87.818493-196.149334 196.149334-196.149334h631.701332c108.330842 0 196.149334 87.818493 196.149334 196.149334V699.850666C1023.996273 808.181507 936.17778 896 827.846939 896z m-189.347911-838.621139h-252.010452v42.001121h252.010452v-42.001121z m0 336.016421v-210.009332h-252.010452v210.009332H218.480365l291.492252 317.699162 296.530895-317.699162h-168.004484z"  horiz-adv-x="1024" />

    
    <glyph glyph-name="yonghu" unicode="&#58897;" d="M721.562 744.548C665.566 800.543 591.116 831.38 511.927 831.38s-153.639-30.838-209.634-86.833-86.834-130.445-86.834-209.635c0-63.765 20.009-124.45 57.033-174.907-59.386-38.614-109.286-90.872-145.05-152.136-40.292-69.023-61.59-147.974-61.59-228.312 0-22.607 18.326-40.933 40.932-40.933s40.932 18.326 40.932 40.933c0 65.851 17.437 130.53 50.427 187.04 32.046 54.897 77.927 100.986 132.682 133.282 0.064 0.038 0.126 0.081 0.19 0.119 51.614-39.916 114.597-61.554 180.912-61.554 79.19 0 153.64 30.838 209.635 86.833 55.995 55.996 86.833 130.446 86.833 209.635 0 79.19-30.838 153.64-86.833 209.635zM511.927 320.309c-118.333 0-214.603 96.271-214.603 214.604 0 118.333 96.27 214.604 214.603 214.604s214.604-96.27 214.604-214.604C726.53 416.58 630.259 320.31 511.927 320.31zM929.803 156.078c-22.84 54.002-55.532 102.492-97.163 144.126-15.985 15.985-41.902 15.986-57.887 0s-15.985-41.902 0-57.887c70.186-70.186 108.838-163.503 108.838-262.76 0-22.606 18.326-40.932 40.932-40.932s40.933 18.326 40.933 40.933c0 61.198-11.996 120.588-35.653 176.52z"  horiz-adv-x="1024" />

    
    <glyph glyph-name="shanchu" unicode="&#58902;" d="M512 765.632a381.632 381.632 0 1 1 0-763.328A381.632 381.632 0 0 1 512 765.632z m181.504-432.768H330.56c-19.072 0-34.56 19.2-34.56 42.816 0 23.68 15.488 42.88 34.56 42.88h362.944c19.072 0 34.496-19.2 34.496-42.88 0-23.616-15.424-42.816-34.496-42.816z"  horiz-adv-x="1024" />

    
    <glyph glyph-name="pencil" unicode="&#58938;" d="M721.5 762.8l169.7-169.7-552.4-552.5-211.7-41.3 42 210.9 552.4 552.6M721.5 819.3l-589.3-589.3-56-281.3 282.2 55 589.4 589.4-226.3 226.2zM619 716.8l-28.3-28.3 226.3-226.3 28.3 28.3-226.3 226.3zM566.6 664.4l-28.3-28.3 226.3-226.3 28.3 28.3-226.3 226.3zM160.2 258l-28.3-28.3 226.3-226.3 28.3 28.3-226.3 226.3zM612.2 572.1l-389.6-389.6 28.3-28.3 389.6 389.6-28.3 28.3zM672.3 512l-389.6-389.6 28.3-28.3 389.6 389.6-28.3 28.3z"  horiz-adv-x="1024" />

    
    <glyph glyph-name="delete" unicode="&#58939;" d="M960 723.8v-40h-896v40h896zM652 824h-280v-100h40v60h200v-60h40v100zM862 683.8h-40v-699.8h-619.7v699.8h-40l-0.3-739.8h700v739.8zM348.3 547.9h-40v-380h40v380zM470.8 547.9h-40v-380h40v380zM593.2 547.9h-40v-380h40v380zM715.7 547.9h-40v-380h40v380z"  horiz-adv-x="1024" />

    
    <glyph glyph-name="set" unicode="&#58940;" d="M569.2 789l15.5-100.7 3.6-23.5 22.3-8.1c8.2-3 16.4-6.4 24.4-10.1l21.5-10.1 101.4 74.4 81-81-60.3-82.2-14-19.2 10.1-21.5c3.8-8 7.2-16.2 10.1-24.4l8.1-22.3 124.1-18.9v-114.6l-124.2-19.1-8.1-22.3c-3-8.2-6.4-16.4-10.2-24.5l-10.1-21.5 14-19.2 60.3-82.2-81-81-101.4 74.4-21.3-10.1c-8-3.8-16.2-7.2-24.4-10.1l-22.3-8.1-3.6-23.5-15.5-100.6h-114.6l-15.5 100.7-3.6 23.5-22.3 8.1c-8.2 3-16.4 6.4-24.4 10.1l-21.5 10.1-19.2-14-82.2-60.3-81 81 74.4 101.4-10 21.4c-3.8 8-7.2 16.2-10.1 24.4l-8.1 22.3-124.1 19.1v114.6l124.2 19.1 8.1 22.3c2.9 8.1 6.3 16.3 10.1 24.3l10.1 21.5-14.1 19.1-60.3 82.2 81 81 101.4-74.3 21.5 10.1c8 3.8 16.2 7.2 24.4 10.1l22.3 8.1 3.6 23.5 15.3 100.6h114.6M603.5 829h-183.2l-20.7-134.6c-9.5-3.4-18.7-7.3-27.7-11.5l-109.8 80.5-129.6-129.6 80.6-109.8c-4.2-9-8.1-18.2-11.5-27.6l-134.6-20.7v-183.2l134.6-20.7c3.4-9.5 7.3-18.7 11.5-27.7l-80.6-109.8 129.6-129.6 109.8 80.5c9-4.2 18.3-8.1 27.7-11.5l20.7-134.7h183.2l20.7 134.6c9.5 3.4 18.7 7.3 27.7 11.5l109.8-80.6 129.6 129.6-80.5 109.8c4.3 9.1 8.1 18.4 11.6 27.9l134.6 20.7v183.2l-134.6 20.7c-3.4 9.5-7.3 18.7-11.5 27.7l80.5 109.8-129.6 129.6-109.8-80.6c-9 4.2-18.3 8.1-27.7 11.5l-20.8 134.6zM512 539c41.4 0 80.3-16.1 109.6-45.4 29.3-29.3 45.4-68.2 45.4-109.6s-16.1-80.3-45.4-109.6c-29.3-29.3-68.2-45.4-109.6-45.4s-80.3 16.1-109.6 45.4c-29.3 29.3-45.4 68.2-45.4 109.6s16.1 80.3 45.4 109.6c29.3 29.3 68.2 45.4 109.6 45.4M512 579c-107.7 0-195-87.3-195-195s87.3-195 195-195 195 87.3 195 195-87.3 195-195 195z"  horiz-adv-x="1024" />

    
    <glyph glyph-name="clock" unicode="&#58941;" d="M512 784c54 0 106.4-10.6 155.7-31.4 47.6-20.1 90.4-49 127.2-85.7 36.7-36.7 65.6-79.5 85.7-127.2 20.8-49.3 31.4-101.7 31.4-155.7s-10.6-106.4-31.4-155.7c-20.1-47.6-49-90.4-85.7-127.2-36.7-36.7-79.5-65.6-127.2-85.7-49.3-20.8-101.7-31.4-155.7-31.4s-106.4 10.6-155.7 31.4c-47.6 20.1-90.4 49-127.2 85.7-36.7 36.7-65.6 79.5-85.7 127.2-20.8 49.3-31.4 101.7-31.4 155.7s10.6 106.4 31.4 155.7c20.1 47.6 49 90.4 85.7 127.2 36.7 36.7 79.5 65.6 127.2 85.7 49.3 20.8 101.7 31.4 155.7 31.4M512 824c-243 0-440-197-440-440s197-440 440-440 440 197 440 440-197 440-440 440zM532 768.1h-40v-40h40v40zM532 40.4h-40v-40h40v40zM337.4 726.7l-34.6-20 20-34.6 34.6 20-20 34.6zM701.3 96.4l-34.6-20 20-34.6 34.6 20-20 34.6zM189.5 593.5l-20-34.6 34.6-20 20 34.6-34.6 20zM819.8 229.6l-20-34.6 34.6-20 20 34.6-34.6 20zM168.1 404.3h-40v-40h40v40zM895.9 404.3h-40v-40h40v40zM204.2 229.6l-34.6-20 20-34.6 34.6 20-20 34.6zM834.5 593.5l-34.6-20 20-34.6 34.6 20-20 34.6zM322.7 96.4l-20-34.6 34.6-20 20 34.6-34.6 20zM686.6 726.7l-20-34.6 34.6-20 20 34.6-34.6 20zM512 434c27.6 0 50-22.4 50-50s-22.4-50-50-50-50 22.4-50 50 22.4 50 50 50M512 474c-49.7 0-90-40.3-90-90s40.3-90 90-90 90 40.3 90 90-40.3 90-90 90zM423 712.2l-38.1-12.2 77-241.3c11 7.4 23.7 12.4 37.4 14.4l-76.3 239.1zM599.2 361.5c-3.5-13.6-10.1-26-19-36.3l140.8-37.6 10.3 38.6-132.1 35.3z"  horiz-adv-x="1024" />

    
    <glyph glyph-name="event" unicode="&#58942;" d="M765.2 716.3v115.4h-40v-115.3h-431.3v115.3h-40v-115.3h-189.9v-780h896v780h-194.8zM920-23.7h-816v532h816v-532zM104 548.3v128h149.9v-44.7h40v44.7h431.3v-44.7h40v44.7h154.8v-128h-816zM812 373.4h-400v40h400v-40zM812 235.9h-600v40h600v-40zM212 98.4v40h600v-40h-600z"  horiz-adv-x="1024" />

    
    <glyph glyph-name="window" unicode="&#58943;" d="M917 754v-740h-810v740h810M957 794h-890v-820h890v820zM957 615.8h-890v-40h890v40zM723.3 704.2h-40v-40h40v40zM808.1 704.2h-40v-40h40v40zM366.4 459.3v-330h-120v330h120M406.4 499.3h-200v-410h200v410zM777.6 459.3v-330h-280v330h280M817.6 499.3h-360v-410h360v410z"  horiz-adv-x="1024" />

    
    <glyph glyph-name="refresh" unicode="&#58944;" d="M830.6 236.8c-50.9-123.8-172.7-211-314.9-211-186.8 0-338.4 150.5-340.4 336.8l-67.8-87.4-31.6 24.5 110.3 142.2 142.2-110.3-24.5-31.6-88.7 68.8v-2.6c0-40.6 7.9-79.9 23.6-116.9 15.1-35.8 36.8-67.9 64.4-95.5 27.6-27.6 59.7-49.3 95.5-64.4 37-15.7 76.3-23.6 116.9-23.6 40.6 0 79.9 7.9 116.9 23.6 35.8 15.1 67.9 36.8 95.5 64.4 24.4 24.4 44.1 52.2 58.8 83h43.8zM237.1 531.2c14.7 30.8 34.4 58.7 58.8 83 27.6 27.6 59.7 49.3 95.5 64.4 37 15.7 76.3 23.6 116.9 23.6 40.6 0 79.9-7.9 116.9-23.6 35.8-15.1 67.9-36.8 95.5-64.4 27.6-27.6 49.3-59.7 64.4-95.5 15.7-37 23.6-76.3 23.6-116.9v-2.6l-88.6 68.8-24.5-31.6 142.2-110.3 110.3 142.2-31.6 24.5-67.8-87.4c-1.9 186.4-153.6 336.8-340.4 336.8-142.2 0-264-87.2-314.9-211h43.7z"  horiz-adv-x="1024" />

    
    <glyph glyph-name="netDevice" unicode="&#58945;" d="M920 389v-370h-816v370h816M960 429h-896v-450h896v450zM302.8 479v-50h-50v50h50M297.8 789h-40v-270h-45v-130h130v130h-45v270zM771.2 479v-50h-50v50h50M766.2 789h-40v-270h-45v-130h130v130h-45v270zM252 294h-40v-180h40v180zM353 294h-40v-180h40v180zM454 294h-40v-180h40v180zM555 294h-40v-180h40v180zM656 294h-40v-180h40v180zM812 294h-40v-40h40v40zM812 224h-40v-40h40v40zM812 154h-40v-40h40v40z"  horiz-adv-x="1024" />

    
    <glyph glyph-name="add" unicode="&#58946;" d="M512 784c54 0 106.4-10.6 155.7-31.4 47.6-20.1 90.4-49 127.2-85.7 36.7-36.7 65.6-79.5 85.7-127.2 20.8-49.3 31.4-101.7 31.4-155.7s-10.6-106.4-31.4-155.7c-20.1-47.6-49-90.4-85.7-127.2-36.7-36.7-79.5-65.6-127.2-85.7-49.3-20.8-101.7-31.4-155.7-31.4s-106.4 10.6-155.7 31.4c-47.6 20.1-90.4 49-127.2 85.7-36.7 36.7-65.6 79.5-85.7 127.2-20.8 49.3-31.4 101.7-31.4 155.7s10.6 106.4 31.4 155.7c20.1 47.6 49 90.4 85.7 127.2 36.7 36.7 79.5 65.6 127.2 85.7 49.3 20.8 101.7 31.4 155.7 31.4M512 824c-243 0-440-197-440-440s197-440 440-440 440 197 440 440-197 440-440 440zM782 404h-540v-40h540v40zM532 654h-40v-540h40v540z"  horiz-adv-x="1024" />

    
    <glyph glyph-name="star" unicode="&#58947;" d="M509 721.5l114.7-225.2 20.8-2.8 229.8-30.4-178.7-178.8 3.8-20.7 42.1-227.9-225.1 114.7-18.5-10-203.8-110.5 36.2 228.9 3.3 20.8-15.2 14.5-168 159.6 249.7 39.6 9.1 19 99.8 209.2M507.8 811.9l-134.8-282.3-309-49 226.8-215.5-48.9-309 275 149.1 278.8-142-56.8 307.6 221.1 221.3-310.1 41-142.1 278.8z"  horiz-adv-x="1024" />

    
    <glyph glyph-name="panel" unicode="&#58948;" d="M960 282.6v-80h-40v80c0 55.1-10.8 108.5-32 158.8-20.5 48.6-50 92.2-87.5 129.7s-81.1 66.9-129.7 87.5c-50.3 21.3-103.7 32-158.8 32s-108.5-10.8-158.8-32c-48.6-20.5-92.2-50-129.7-87.5s-66.9-81.1-87.5-129.7c-21.3-50.3-32-103.7-32-158.8v-80h-40v80c0 247.4 200.6 448 448 448s448-200.6 448-448zM492 622.4h40v60h-40v-60zM215.1 551.2l42.4-42.4 28.3 28.3-42.4 42.4-28.3-28.3zM112.1 262.6h60v40h-60v-40zM851.9 302.6v-40h60v40h-60zM738.2 537l28.3-28.3 42.4 42.4-28.3 28.3-42.4-42.4zM514.3 207.4c-11 0-20-9-20-20s9-20 20-20 20 9 20 20-9 20-20 20M514.3 247.4c33.1 0 60-26.9 60-60s-26.9-60-60-60-60 26.9-60 60 26.9 60 60 60zM442.9 325.5l54.2-154.2 32.7-13.3 7.9 34.3-94.8 133.2M311.3 579.3l269.4-378.4-22.4-97.6-93 37.8-154 438.2zM792 77.4h-560v-40h560v40z"  horiz-adv-x="1024" />

    
    <glyph glyph-name="app" unicode="&#58949;" d="M92 805.3h390v-390h-225.5v40h185.5v310h-310v-189.3h-40v229.3zM932 805.3v-390h-390v390h390zM892 765.3h-310v-310h310v310zM92 352.7h390v-390h-390v390zM132 2.7h310v310h-310v-310zM542 352.7h390v-390h-390v390zM582 2.7h310v310h-310v-310z"  horiz-adv-x="1024" />

    
    <glyph glyph-name="hardware" unicode="&#58950;" d="M912 767.1v-220h-800v220h800M952 807.1h-880v-300h880v300zM912 420.9v-420h-800v420h800M952 460.9h-880v-500h880v500zM657 677.1h-450v-40h450v40zM817 677.1h-40v-40h40v40zM737 677.1h-40v-40h40v40zM247 350.9h-40v-280h40v280zM361 350.9h-40v-280h40v280zM475 350.9h-40v-280h40v280zM589 350.9h-40v-280h40v280zM703 350.9h-40v-280h40v280zM817 350.9h-40v-280h40v280z"  horiz-adv-x="1024" />

    
    <glyph glyph-name="histogram" unicode="&#58951;" d="M224.9 311.8v-313.8h-120v313.8h120M264.9 351.8h-200v-393.8h200v393.8zM456.3 642.2v-644.2h-120v644.2h120M496.3 682.2h-200v-724.2h200v724.2zM687.7 770v-772h-120v772h120M727.7 810h-200v-852h200v852zM919.1 461v-463h-120v463h120M959.1 501h-200v-543h200v543z"  horiz-adv-x="1024" />

    
    <glyph glyph-name="laptop" unicode="&#58952;" d="M882 704v-520h-740v520h740M922 744h-820v-600h820v600zM920 144v-80h-816v80h816M960 184h-896v-160h896v160zM592 144h-160v-40h160v40zM532 682.2h-40v-40h40v40z"  horiz-adv-x="1024" />

    
    <glyph glyph-name="help" unicode="&#58953;" d="M512 784c54 0 106.4-10.6 155.7-31.4 47.6-20.1 90.4-49 127.2-85.7 36.7-36.7 65.6-79.5 85.7-127.2 20.8-49.3 31.4-101.7 31.4-155.7s-10.6-106.4-31.4-155.7c-20.1-47.6-49-90.4-85.7-127.2-36.7-36.7-79.5-65.6-127.2-85.7-49.3-20.8-101.7-31.4-155.7-31.4s-106.4 10.6-155.7 31.4c-47.6 20.1-90.4 49-127.2 85.7-36.7 36.7-65.6 79.5-85.7 127.2-20.8 49.3-31.4 101.7-31.4 155.7s10.6 106.4 31.4 155.7c20.1 47.6 49 90.4 85.7 127.2 36.7 36.7 79.5 65.6 127.2 85.7 49.3 20.8 101.7 31.4 155.7 31.4M512 824c-243 0-440-197-440-440s197-440 440-440 440 197 440 440-197 440-440 440zM677 457.5c0 91.1-73.9 165-165 165s-165-73.9-165-165v-0.3h40v0.3c0 33.4 13 64.8 36.6 88.4s55 36.6 88.4 36.6c33.4 0 64.8-13 88.4-36.6 23.6-23.6 36.6-55 36.6-88.4s-13-64.8-36.6-88.4c-23.6-23.6-55-36.6-88.4-36.6v-0.1h-34v-107h40v67.2c88.3 3.2 159 75.8 159 164.9zM478 145.5h40v40h-40v-40z"  horiz-adv-x="1024" />

    
    <glyph glyph-name="alter" unicode="&#58954;" d="M917 754v-740h-810v740h810M957 794h-890v-820h890v820zM957 615.8h-890v-40h890v40zM723.3 704.2h-40v-40h40v40zM808.1 704.2h-40v-40h40v40zM732.8 492.9h-460v-176.7l-79 79-28.3-28.3 127.3-127.3 127.2 127.3-28.3 28.3-79-79v136.7h420v40h0.1zM731.3 366.3l-127.3-127.3 28.3-28.3 79 79v-136.7h-420v-40h460v176.7l79-79 28.3 28.3-127.3 127.3z"  horiz-adv-x="1024" />

    
    <glyph glyph-name="tag" unicode="&#58955;" d="M852 824h-680l-10-880 350 314.3 350-314.3-10 880zM538.7 288.1l-26.7 24-309-277.5 8.5 749.4h600.9l8.5-749.4-282.2 253.5zM432 714h160v-40h-160v40z"  horiz-adv-x="1024" />

    
    <glyph glyph-name="edit" unicode="&#58956;" d="M900 431.7v-420.1h-776v700h452.6v40h-492.6v-780h856v460.1h-40zM822.2 796.4l-471.3-471.2-68.9-182.3 182.1 69.1 471.2 471.2-113.1 113.2zM878.7 683.3l-405.4-405.5-56.6 56.6 405.5 405.5 56.5-56.6zM350.8 211.8l34.5 91.1 3.1 3.1 56.6-56.6-3.1-3.1-91.1-34.5z"  horiz-adv-x="1024" />

    
    <glyph glyph-name="pieChart" unicode="&#58957;" d="M451.1 779.4v-268.3l-190.6 183.9c55 44.6 120.7 73.7 190.6 84.4M491.1 823.5c-112.7-5.3-214.3-53-289.3-127.5l289.3-279.2v406.7zM194.3 610.2l233.2-217.3-234.1-233.9c-18.5 26.2-33.7 54.4-45.3 84.4-17.3 44.8-26.1 92.1-26.1 140.6s8.8 95.8 26.1 140.6c11.8 30.5 27.2 59.1 46.2 85.6M189.9 668.9c-67.1-75.8-107.9-175.6-107.9-284.9 0-109.3 40.8-209.1 108-285l295.1 294.9-295.2 275zM553.3 761.8c37.1-4 73.1-13.3 107.5-28 45.1-19.2 85.6-46.6 120.4-81.5 34.8-34.9 62.1-75.5 81.2-120.7 19.6-46.7 29.6-96.4 29.6-147.6 0-51.3-10-101.1-29.8-147.9-19.1-45.2-46.5-85.9-81.5-120.8-34.9-34.9-75.6-62.3-120.8-81.5-46.8-19.8-96.6-29.8-147.9-29.8-51.3 0-101.1 10-147.9 29.8-32.9 13.9-63.4 32.2-91 54.6l279 278.8 0.1 16.5 1.1 378.1M513.4 804l-1.3-420.1-297.1-296.9c76-76 181-123 297-123 232 0 420 188 420 420 0 231.5-187.3 419.2-418.6 420z"  horiz-adv-x="1024" />

    
    <glyph glyph-name="tv" unicode="&#58958;" d="M920 597.2v-560h-816v560h816M960 637.2h-896v-640h896v640zM840 517.2v-400h-656v400h656M880 557.2h-736v-480h736v480zM308.8-2.8h-120v-40h120v40zM835.2-2.8h-120v-40h120v40zM231.8 810.8l-30.6-25.7 154.3-183.9 30.5 25.8-154.2 183.8zM792.2 810.8l-154.2-183.8 30.6-25.7 154.3 183.9-30.7 25.6zM920 464.9h-40v-40h40v40zM920 304.9h-40v-40h40v40zM920 384.9h-40v-40h40v40z"  horiz-adv-x="1024" />

    
    <glyph glyph-name="order" unicode="&#58959;" d="M907.4 762.1h-205.4v63.8h-380v-63.8h-207.1v-820h794.3v820h-1.8zM362 785.9h300v-120h-300v120zM869.2-17.9h-714.4v740h167.2v-96.2h380v96.2h167.2v-740zM762 495v-40h-500v40h500zM262 358.8h500v-40h-500v40zM262 222.6h500v-40h-500v40z"  horiz-adv-x="1024" />

    
    <glyph glyph-name="disk" unicode="&#58960;" d="M631 779l286-286v-504h-810v790h524M647.5 819h-580.5v-870h890v560.5l-309.5 309.5zM597.5 779v-248.6h-347.5v248.6h347.5M637.5 819h-427.5v-328.6h427.5v328.6zM774 237.6v-248.6h-524v248.6h524M814 277.6h-604v-328.6h604v328.6zM360.7 737.9h-40v-160h40v160zM705 177.5h-386v-40h386v40zM705 91.3h-386v-40h386v40z"  horiz-adv-x="1024" />

    
    <glyph glyph-name="publish" unicode="&#58961;" d="M920 676.3v-700h-816v700h816M960 716.3h-896v-780h896v780zM293.9 831.7h-40v-200h40v200zM765.2 831.7h-40v-200h40v200zM960 548.3h-896v-40h896v40zM512.5 408.2l-198-198 28.3-28.3 149.7 149.7v-363.9h40v363.9l149.7-149.7 28.3 28.3-198 198z"  horiz-adv-x="1024" />

    
    <glyph glyph-name="magnifier" unicode="&#58962;" d="M466 750c41.6 0 82.1-7.9 120.4-23.4 39.7-16.1 75.3-39.7 105.8-70.3 58.2-58.3 91.5-135.7 93.6-218 2.1-82-26.8-160.7-81.4-221.6l-11.9-13.3-13.3-11.9c-58.5-52.5-134.3-81.5-213.3-81.5-41.6 0-82.1 7.9-120.4 23.4-39.7 16.1-75.3 39.7-105.8 70.3-30.6 30.6-54.2 66.2-70.3 105.8-15.6 38.4-23.4 79-23.4 120.5 0 41.6 7.9 82.1 23.4 120.4 16.1 39.7 39.7 75.3 70.3 105.8 30.6 30.6 66.2 54.2 105.8 70.3 38.4 15.7 78.9 23.5 120.5 23.5M466 790c-92.1 0-184.3-35.1-254.6-105.4-140.6-140.6-140.6-368.5 0-509.1 70.3-70.3 162.4-105.5 254.5-105.5 85.9 0 171.8 30.6 240 91.7l183.9-183.7 28.3 28.3-183.8 183.7c126.7 141.3 122.1 358.7-13.8 494.6-70.3 70.3-162.4 105.4-254.5 105.4z"  horiz-adv-x="1024" />

    
    <glyph glyph-name="tool" unicode="&#58963;" d="M672.8 767.7c28.5 0 56.2-5.3 82-15.4l-152-152 126.9-126.9 152 152c12.3-31.4 17.5-65.5 14.8-99.7-2-26.1-8.5-51.3-19.3-75-11.1-24.5-26.5-46.7-45.7-65.9-42.4-42.4-98.7-65.7-158.6-65.7-32.3 0-64.7 7.1-93.8 20.5l-28.4 13.1-333.9-333.9-71.4 71.4 334.5 334.5-12.4 28.1c-18.1 40.9-23.4 86-15.5 130.3 8.1 45.2 29.6 86.4 62.2 119 42.3 42.3 98.7 65.6 158.6 65.6M672.8 812.6c-68.9 0-137.8-26.3-190.3-78.8-80.9-80.9-99.5-200.4-56-299.1l-344.5-344.5 134.8-134.8 343.4 343.4c35.6-16.4 74.1-24.6 112.6-24.6 68.9 0 137.8 26.3 190.4 78.8 94.3 94.3 104 241.2 29.1 346.4l-162.7-162.6-63.5 63.5 162.6 162.6c-46.5 33.1-101.2 49.7-155.9 49.7zM246.3 91l-28.3 28.3-28.3-28.3 28.3-28.3 28.3 28.3z"  horiz-adv-x="1024" />

    
    <glyph glyph-name="aid" unicode="&#58964;" d="M920 545v-520h-816v520h816M960 585h-896v-600h896v600zM799.5 625h-57.1v158h-461v-158h-56.9v-40h56.9v-40h461v40h57.1v40zM702.4 585h-327.9v40h-53.1v118h381v-118h-52.9v-40h52.9zM652 313.4h-120v120h-40v-120h-120v-40h120v-120h40v120h120v40z"  horiz-adv-x="1024" />

    
    <glyph glyph-name="shutDown" unicode="&#58965;" d="M532 830.9v-447.9h-40v447.9h40zM642 777.1v-42.1c7.3-2.6 14.6-5.4 21.8-8.5 46.4-19.6 88.1-47.8 124-83.6 35.8-35.8 64-77.5 83.6-124 20.3-48.1 30.6-99.1 30.6-151.8 0-52.7-10.3-103.7-30.6-151.8-19.6-46.4-47.8-88.1-83.6-124-35.8-35.8-77.5-64-124-83.6-48.1-20.3-99.1-30.6-151.8-30.6s-103.7 10.3-151.8 30.6c-46.4 19.6-88.1 47.8-124 83.6-35.8 35.8-64 77.5-83.6 124-20.3 48.1-30.6 99.1-30.6 151.8 0 52.7 10.3 103.7 30.6 151.8 19.6 46.4 47.8 88.1 83.6 124 35.8 35.8 77.5 64 124 83.6 7.2 3 14.5 5.9 21.8 8.5v42.2c-173.9-55.2-300-217.9-300-410.1 0-237.5 192.5-430 430-430s430 192.5 430 430c0 192.2-126.1 354.9-300 410z"  horiz-adv-x="1024" />

    
    <glyph glyph-name="cancel" unicode="&#58966;" d="M512 784c54 0 106.4-10.6 155.7-31.4 47.6-20.1 90.4-49 127.2-85.7 36.7-36.7 65.6-79.5 85.7-127.2 20.8-49.3 31.4-101.7 31.4-155.7s-10.6-106.4-31.4-155.7c-20.1-47.6-49-90.4-85.7-127.2-36.7-36.7-79.5-65.6-127.2-85.7-49.3-20.8-101.7-31.4-155.7-31.4s-106.4 10.6-155.7 31.4c-47.6 20.1-90.4 49-127.2 85.7-36.7 36.7-65.6 79.5-85.7 127.2-20.8 49.3-31.4 101.7-31.4 155.7s10.6 106.4 31.4 155.7c20.1 47.6 49 90.4 85.7 127.2 36.7 36.7 79.5 65.6 127.2 85.7 49.3 20.8 101.7 31.4 155.7 31.4M512 824c-243 0-440-197-440-440s197-440 440-440 440 197 440 440-197 440-440 440zM688.8 589.1l-176.8-176.8-176.8 176.8-28.3-28.3 176.8-176.8-176.8-176.8 28.3-28.3 176.8 176.8 176.8-176.8 28.3 28.3-176.8 176.8 176.8 176.8-28.3 28.3z"  horiz-adv-x="1024" />

    
    <glyph glyph-name="unknow" unicode="&#58967;" d="M794 774l93.3-160h-750.7l93.4 160h564M817 814h-610l-140-240h890l-140 240zM107 574h-40v-620h40v620zM957-6h-890v-40h890v40zM957 574h-40v-620h40v620zM677 363.6c0 91.1-73.9 165-165 165s-165-73.9-165-165v-0.3h40v0.3c0 33.4 13 64.8 36.6 88.4 23.6 23.6 55 36.6 88.4 36.6 33.4 0 64.8-13 88.4-36.6 23.6-23.6 36.6-55 36.6-88.4s-13-64.8-36.6-88.4c-23.6-23.6-55-36.6-88.4-36.6v-0.1h-34v-107h40v67.2c88.3 3.2 159 75.8 159 164.9zM478 51.5h40v40h-40v-40z"  horiz-adv-x="1024" />

    
    <glyph glyph-name="folder" unicode="&#58968;" d="M363.9 740l99.3-111.6h456.8v-600.4h-816v712h259.9M381.8 780h-317.8v-792h896v680.4h-478.9l-99.3 111.6zM960 554.3h-896v-40h896v40z"  horiz-adv-x="1024" />

    
    <glyph glyph-name="file" unicode="&#58969;" d="M349.7 732.4v-136.2h-136.1l136.1 136.2M389.7 829l-272.7-272.7h272.7v272.7zM867 789v-810h-710v560.7l249.3 249.3h460.7M907 829h-517.3l-272.7-272.7v-617.3h790v890zM762 539.4h-350v-40h350v40zM762 419.3h-500v-40h500v40zM762 299.1h-500v-40h500v40zM762 178.9h-500v-40h500v40z"  horiz-adv-x="1024" />

    
    <glyph glyph-name="email" unicode="&#58970;" d="M920 674v-580h-816v580h816M960 714h-896v-660h896v660zM920 674v-22.2l-392.4-302.1-423.6 309.3v15h816M960 714h-896v-75.3l464.2-338.9 431.8 332.3v81.9z"  horiz-adv-x="1024" />

    
    <glyph glyph-name="user" unicode="&#58971;" d="M512 725.7c42.7 0 82.9-16.6 113.1-46.9 30.2-30.2 46.9-70.4 46.9-113.1s-16.6-82.9-46.9-113.1c-30.2-30.2-70.4-46.9-113.1-46.9s-82.9 16.6-113.1 46.9-46.9 70.4-46.9 113.1 16.6 82.9 46.9 113.1c30.2 30.3 70.4 46.9 113.1 46.9M512 765.7c-110.5 0-200-89.5-200-200s89.5-200 200-200 200 89.5 200 200-89.5 200-200 200zM112.7 2.3c5.3 25.4 13.1 50.2 23.3 74.3 20.5 48.6 50 92.2 87.5 129.7s81.1 66.9 129.7 87.5c50.3 21.3 103.7 32 158.8 32s108.5-10.8 158.8-32c48.6-20.5 92.2-50 129.7-87.5s66.9-81.1 87.5-129.7c10.2-24.1 18-48.9 23.3-74.3h40.7c-39.5 207-221.5 363.5-440 363.5s-400.5-156.5-440-363.5h40.7z"  horiz-adv-x="1024" />

    
    <glyph glyph-name="screen" unicode="&#58972;" d="M920 720.3v-520h-816v520h816M960 760.3h-896v-600h896v600zM960 325.5h-896v-40h896v40zM532 258.6h-40v-40h40v40zM418.4 169.6h-40v-122.8h40v122.8zM645.6 169.6h-40v-122.8h40v122.8zM802 47.7h-580v-40h580v40z"  horiz-adv-x="1024" />

    
    <glyph glyph-name="cloud" unicode="&#58973;" d="M598.8 711.9c35 0 68.9-6.8 100.8-20.3 30.8-13 58.5-31.7 82.3-55.5 23.8-23.8 42.5-51.5 55.5-82.3 13.5-31.9 20.3-65.8 20.3-100.8 0-7.9-0.4-16-1.1-24.1l-1.6-17.4 11.6-13c33.7-37.7 52.3-86.3 52.3-136.9 0-54.4-21-105.6-59.2-144.3-38.1-38.6-89-60.3-143.3-61.1h-419.5c-51.5 1.1-99.8 22.1-135.9 58.9-36.1 36.9-56 85.7-56 137.4 0 60.2 27.1 116.3 74.3 153.8l14.3 11.4 0.8 18.3c1.7 39.5 18.3 76.3 46.8 103.8 28.6 27.5 66.3 42.7 106 42.7 1.3 0 2.7 0 4.2-0.1l21.7-0.6 12.3 17.9c23.4 33.9 54.9 62.1 91.1 81.6 18.4 9.9 38 17.5 58.2 22.7 20.8 5.2 42.4 7.9 64.1 7.9M598.8 751.9c-102.2 0-192.4-51.3-246.4-129.6-1.7 0-3.5 0.1-5.2 0.1-103.8 0-188.5-82-192.8-184.8-54.5-43.3-89.4-110.1-89.4-185.1 0-128.8 103-233.5 231.1-236.3v-0.1h420.9c134 1.9 242 111 242 245.4 0 62.8-23.6 120.2-62.5 163.6 0.8 9.2 1.3 18.4 1.3 27.8 0 165.1-133.8 299-299 299zM510 420l-198-198 28.3-28.3 149.7 149.7v-304.5h40v304.5l149.7-149.7 28.3 28.3-198 198z"  horiz-adv-x="1024" />

    
    <glyph glyph-name="compass" unicode="&#58974;" d="M512 784c54 0 106.4-10.6 155.7-31.4 47.6-20.1 90.4-49 127.2-85.7 36.7-36.7 65.6-79.5 85.7-127.2 20.8-49.3 31.4-101.7 31.4-155.7s-10.6-106.4-31.4-155.7c-20.1-47.6-49-90.4-85.7-127.2-36.7-36.7-79.5-65.6-127.2-85.7-49.3-20.8-101.7-31.4-155.7-31.4s-106.4 10.6-155.7 31.4c-47.6 20.1-90.4 49-127.2 85.7-36.7 36.7-65.6 79.5-85.7 127.2-20.8 49.3-31.4 101.7-31.4 155.7s10.6 106.4 31.4 155.7c20.1 47.6 49 90.4 85.7 127.2 36.7 36.7 79.5 65.6 127.2 85.7 49.3 20.8 101.7 31.4 155.7 31.4M512 824c-243 0-440-197-440-440s197-440 440-440 440 197 440 440-197 440-440 440zM492 755.9v-90h40v90h-40zM492 12.1h40v90h-40v-90zM140.1 364h80v40h-80v-40zM883.9 364v40h-80v-40h80zM376.5 519.6l180-91.1 91.1-180-180.1 91-91 180.1M285.8 610.4l152-300.6 300.6-152-152.2 300.4-300.4 152.2z"  horiz-adv-x="1024" />

    
    <glyph glyph-name="restart" unicode="&#58975;" d="M532 826.2v-340h-40v340h40zM492-58.2h40v340h-40v-340zM119.1 587.8l294.4-170 20 34.6-294.4 170-20-34.6zM884.9 145.6l20 34.6-294.4 170-20-34.6 294.4-170zM139.1 145.6l294.4 170-20 34.6-294.4-170 20-34.6zM904.9 587.8l-20 34.6-294.4-170 20-34.6 294.4 170z"  horiz-adv-x="1024" />

    
    <glyph glyph-name="correct" unicode="&#58976;" d="M512 784c54 0 106.4-10.6 155.7-31.4 47.6-20.1 90.4-49 127.2-85.7 36.7-36.7 65.6-79.5 85.7-127.2 20.8-49.3 31.4-101.7 31.4-155.7s-10.6-106.4-31.4-155.7c-20.1-47.6-49-90.4-85.7-127.2-36.7-36.7-79.5-65.6-127.2-85.7-49.3-20.8-101.7-31.4-155.7-31.4s-106.4 10.6-155.7 31.4c-47.6 20.1-90.4 49-127.2 85.7-36.7 36.7-65.6 79.5-85.7 127.2-20.8 49.3-31.4 101.7-31.4 155.7s10.6 106.4 31.4 155.7c20.1 47.6 49 90.4 85.7 127.2 36.7 36.7 79.5 65.6 127.2 85.7 49.3 20.8 101.7 31.4 155.7 31.4M512 824c-243 0-440-197-440-440s197-440 440-440 440 197 440 440-197 440-440 440zM432.9 245.5l-127.3 127.3-28.3-28.3 155.6-155.5 333.8 333.7-28.3 28.3z"  horiz-adv-x="1024" />

    
    <glyph glyph-name="deblock" unicode="&#58977;" d="M912 429v-440h-800v440h800M952 469h-880v-520h880v520zM196.2 469c25 180.2 157 318.1 315.8 318.1 127 0 237-88.4 288.6-216l37.5 14c-57.4 143-181.9 242-326.2 242-180.8 0-330.5-155.5-356.1-358.1h40.4zM532 299h-40v-180h40v180z"  horiz-adv-x="1024" />

    
    <glyph glyph-name="lock" unicode="&#58978;" d="M912 429v-440h-800v440h800M952 469h-880v-520h880v520zM422 229v-40h180v40h-180zM193.8 469c30.8 181.4 161.8 318.1 318.2 318.1s287.4-136.7 318.2-318.1h40.5c-31.8 203.9-180.3 358.1-358.7 358.1s-326.9-154.2-358.7-358.1h40.5z"  horiz-adv-x="1024" />

    
    <glyph glyph-name="house" unicode="&#58979;" d="M953.7 309.3l-437.1 520.9h-9.1l-437.2-520.9 30.6-25.7 51 60.8v-406.6h720v406.6l51-60.8 30.8 25.7zM832-22.2h-640v414.3l320 381.4 320-381.4v-414.3zM632 197.8v-220h-240v220h240M672 237.8h-320v-300h320v300zM632 275.7v-38h-240v38h240M672 315.7h-320v-118h320v118zM846.7 762.5v-271l-40 46.2v184.8h-160l-34.6 40h234.6zM562 481.5h-100v40h100v-40z"  horiz-adv-x="1024" />

    
    <glyph glyph-name="cpu" unicode="&#58980;" d="M827 699v-630h-630v630h630M867 739h-710v-710h710v710zM502.2 563.5v-359h-200v359h200M542.2 603.5h-280v-439h280v439zM721.8 563.5v-110h-80v110h80M761.8 603.5h-160v-190h160v190zM721.8 313.5v-109h-80v109h80M761.8 353.5h-160v-189h160v189zM353.9 832.3h-40v-100h40v100zM472.6 832.3h-40v-100h40v100zM591.4 832.3h-40v-100h40v100zM710.1 832.3h-40v-100h40v100zM353.9 35.7h-40v-100h40v100zM472.6 35.7h-40v-100h40v100zM591.4 35.7h-40v-100h40v100zM710.1 35.7h-40v-100h40v100zM163.7 225.9h-100v-40h100v40zM163.7 344.6h-100v-40h100v40zM163.7 463.4h-100v-40h100v40zM163.7 582.1h-100v-40h100v40zM960.3 225.9h-100v-40h100v40zM960.3 344.6h-100v-40h100v40zM960.3 463.4h-100v-40h100v40zM960.3 582.1h-100v-40h100v40z"  horiz-adv-x="1024" />

    
    <glyph glyph-name="mima" unicode="&#58882;" d="M522.989899 339.264646c-42.666667 0-77.187879-34.521212-77.187879-77.187878 0-30.771717 18.10101-57.018182 44.088889-69.559596v-84.945455c0-18.230303 14.868687-33.09899 33.09899-33.09899 18.230303 0 33.09899 14.868687 33.09899 33.09899V192.646465c25.987879 12.412121 44.088889 38.787879 44.088889 69.430303 0.129293 42.666667-34.521212 77.187879-77.187879 77.187878z m320 154.505051h-661.979798C144.420202 493.769697 114.812121 464.161616 114.812121 427.571717v-441.276768c0-36.589899 29.608081-66.19798 66.19798-66.197979h661.979798c36.589899 0 66.19798 29.608081 66.19798 66.197979V427.571717c0 36.589899-29.608081 66.19798-66.19798 66.19798z m0-463.385859c0-36.589899-7.628283-44.088889-44.088889-44.088889H225.09899c-36.589899 0-44.088889 7.628283-44.088889 44.088889V383.482828c0 36.589899 7.49899 44.088889 44.088889 44.088889h573.80202c36.589899 0 44.088889-7.628283 44.088889-44.088889v-353.09899zM199.240404 527.127273c18.359596 0 33.357576 14.610101 33.874748 32.840404h0.129292c29.866667 126.448485 143.256566 220.70303 278.884849 220.70303 106.020202 0 198.206061-57.664646 247.854545-143.256566 5.171717-11.636364 16.808081-19.781818 30.383839-19.781818 18.359596 0 33.228283 14.868687 33.228283 33.228283 0 7.111111-2.327273 13.834343-6.076768 19.264647C756.363636 775.628283 642.715152 846.868687 512 846.868687 341.20404 846.868687 198.981818 729.729293 166.270707 568.630303c-0.129293-0.646465-0.258586-1.292929-0.387879-2.068687-0.129293-0.775758-0.387879-1.551515-0.517171-2.456565h0.129292c-0.129293-1.034343-0.129293-2.19798-0.129292-3.232324 0-18.618182 15.127273-33.745455 33.874747-33.745454z"  horiz-adv-x="1024" />

    
    <glyph glyph-name="finish" unicode="&#58981;" d="M879.7 702.2l-495-495-240.4 240.4-70.7-70.7 311.1-311.1 565.7 565.7z"  horiz-adv-x="1024" />

    
    <glyph glyph-name="close" unicode="&#58982;" d="M794.8 30.4l-282.8 282.9-282.8-282.9-70.7 70.7 282.8 282.9-282.9 282.8 70.7 70.7 282.9-282.8 282.8 282.8 70.7-70.7-282.8-282.8 282.8-282.8-70.7-70.8z"  horiz-adv-x="1024" />

    
    <glyph glyph-name="top" unicode="&#58983;" d="M101.9 214.3l410.1 410.1 410.1-410.1-70.7-70.7-339.4 339.4-339.4-339.4-70.7 70.7z"  horiz-adv-x="1024" />

    
    <glyph glyph-name="left" unicode="&#58984;" d="M752.4 723.4l-339.4-339.4 339.4-339.4-70.7-70.7-410.1 410.1 410.1 410.1 70.7-70.7z"  horiz-adv-x="1024" />

    
    <glyph glyph-name="bottom" unicode="&#58985;" d="M172.6 624.4l339.4-339.4 339.4 339.4 70.7-70.7-410.1-410.1-410.1 410.1 70.7 70.7z"  horiz-adv-x="1024" />

    
    <glyph glyph-name="right" unicode="&#58986;" d="M342.3 794.1l410.1-410.1-410.1-410.1-70.7 70.7 339.4 339.4-339.4 339.4 70.7 70.7z"  horiz-adv-x="1024" />

    
    <glyph glyph-name="memory" unicode="&#58987;" d="M920 754.5v-101.9c-12.7-11-20.7-27.2-20.7-45.3s8-34.3 20.7-45.3v-548.6h-598.8v100.4h-120v-100.4h-97.2v549c12.4 11 20.2 27 20.2 44.9s-7.8 33.9-20.2 44.9v102.3h816M960 794.5h-896v-167.1h0.2c11 0 20-9 20-20s-9-20-20-20h-0.2v-613.9h177.2v100.4h40v-100.4h678.8v613.9h-0.7c-11 0-20 9-20 20s9 20 20 20h0.7v167.1zM481.9 113.8h-40v-120h40v120zM396.7 113.8h-40v-120h40v120zM567.1 113.8h-40v-120h40v120zM652.3 113.8h-40v-120h40v120zM737.6 113.8h-40v-120h40v120zM822.8 113.8h-40v-120h40v120zM782.8 554.2v-223.7h-541.6v223.7h541.6M822.8 594.2h-621.6v-303.7h621.5v303.7h0.1z"  horiz-adv-x="1024" />

    
    <glyph glyph-name="institute" unicode="&#58988;" d="M682 778v-240h-340v240h340M722 818h-420v-320h420v320zM286.2 248.2v-240h-160v240h160M326.2 288.2h-240v-320h240v320zM602.9 248.2v-240h-160v240h160M642.9 288.2h-240v-320h240v320zM919.6 248.2v-240h-160v240h160M959.6 288.2h-240v-320h240v320zM532 498.1h-40v-100h40v100zM532 387.8h-40v-100h40v100zM858.6 415.8h-686.6v-40h686.6v40zM858.5 387.8h-40v-100h40v100zM212 387.8h-40v-100h40v100z"  horiz-adv-x="1024" />

    
    <glyph glyph-name="server" unicode="&#58989;" d="M632 681.2v-70h-240v70h240M672 721.2h-320v-150h320v150zM672 534.9h-320v-40h320v40zM672 456.3h-320v-40h320v40zM512 286c-11 0-20-9-20-20s9-20 20-20 20 9 20 20-9 20-20 20zM512 213.9c-11 0-20-9-20-20s9-20 20-20 20 9 20 20-9 20-20 20zM512 98.7c5.5 0 10-4.5 10-10s-4.5-10-10-10-10 4.5-10 10 4.5 10 10 10M512 138.7c-27.6 0-50-22.4-50-50s22.4-50 50-50 50 22.4 50 50-22.4 50-50 50zM772 792v-816h-520v816h520M812 832h-600v-896h600v896z"  horiz-adv-x="1024" />

    
    <glyph glyph-name="network" unicode="&#58990;" d="M512 784c54 0 106.4-10.6 155.7-31.4 47.6-20.1 90.4-49 127.2-85.7 36.7-36.7 65.6-79.5 85.7-127.2 20.8-49.3 31.4-101.7 31.4-155.7s-10.6-106.4-31.4-155.7c-20.1-47.6-49-90.4-85.7-127.2-36.7-36.7-79.5-65.6-127.2-85.7-49.3-20.8-101.7-31.4-155.7-31.4-54 0-106.4 10.6-155.7 31.4-47.6 20.1-90.4 49-127.2 85.7-36.7 36.7-65.6 79.5-85.7 127.2-20.8 49.3-31.4 101.7-31.4 155.7s10.6 106.4 31.4 155.7c20.1 47.6 49 90.4 85.7 127.2 36.7 36.7 79.5 65.6 127.2 85.7 49.3 20.8 101.7 31.4 155.7 31.4M512 824c-243 0-440-197-440-440s197-440 440-440 440 197 440 440-197 440-440 440zM404.9 104.6c-9.8 34.9-17.7 70.8-23.6 107.3 42.7 5.3 86.4 8 130.6 8 44.3 0 87.9-2.7 130.6-8-5.9-36.5-13.7-72.4-23.6-107.3-11.6-41.3-26-81.1-42.7-118.3-6.1-13.7-12.6-27-19.4-40 16.4 1.7 32.6 4.3 48.5 7.7 35.5 74.8 61.9 160.1 76.7 252.2 35-5.8 69.3-13.4 102.8-22.8 34.3-9.6 67.5-21.2 99.1-34.3 7.2 11.3 13.8 23 20 35-65.7 27.9-138.5 49-216.3 61.8 5.2 42.8 7.9 86.8 7.9 131.8 0 50.9-3.5 100.5-10.1 148.5 77.9 12.6 150.8 33.6 216.7 61.4-6.2 12-13 23.6-20.3 34.9-30.9-12.8-63.5-24.1-97-33.5-34.4-9.7-69.6-17.4-105.6-23.3-16.2 91.7-44 176.3-80.9 250-16 3.2-32.2 5.5-48.8 6.9 9.5-17.2 18.4-35.1 26.7-53.6 16.7-37.2 31-77 42.7-118.3 8.3-29.6 15.2-59.8 20.7-90.6-41.8-5.1-84.5-7.7-127.8-7.7s-86 2.6-127.8 7.7c5.5 30.8 12.4 61 20.7 90.6 11.6 41.3 26 81.1 42.7 118.3 8.3 18.5 17.2 36.4 26.7 53.6-16.5-1.4-32.8-3.7-48.8-6.9-36.9-73.7-64.7-158.3-80.9-250-36 5.8-71.2 13.6-105.6 23.3-33.5 9.4-66.1 20.7-97 33.5-7.3-11.3-14.1-22.9-20.3-34.9 65.8-27.8 138.8-48.7 216.7-61.4-6.6-47.9-10.1-97.6-10.1-148.5 0-45 2.7-89.1 7.9-131.8-77.5-13-150.3-34-216-61.9 6.1-12 12.8-23.7 20-35 31.6 13.2 64.8 24.7 99.1 34.3 33.5 9.4 67.8 17 102.8 22.8 14.7-92.1 41.1-177.4 76.6-252.1 15.9-3.4 32-6 48.5-7.7-6.8 13-13.3 26.4-19.4 40-16.7 37.2-31.1 77-42.7 118.3zM368.4 377.6c0 48.5 3.2 96.2 9.6 142.8 43.4-5.4 88.2-8.2 134-8.2s90.6 2.8 134 8.2c6.4-46.6 9.6-94.3 9.6-142.8 0-42.7-2.5-84.8-7.5-126.1-44.1 5.5-89.6 8.4-136.2 8.4s-92.1-2.9-136.2-8.4c-4.8 41.2-7.3 83.4-7.3 126.1zM952 404h-880v-40h880v40z"  horiz-adv-x="1024" />

    
    <glyph glyph-name="midware" unicode="&#58991;" d="M432.5 784.5c29.4 0 57-11.4 77.8-32.2 20.8-20.8 32.2-48.4 32.2-77.8 0-6.1-0.5-12.3-1.5-18.4l-7.8-46.6h199.4v-201.4l47.7 9.3c7 1.4 14.2 2.1 21.3 2.1 29.4 0 57-11.4 77.8-32.2 20.8-20.8 32.2-48.4 32.2-77.8s-11.4-57-32.2-77.8c-20.8-20.8-48.4-32.2-77.8-32.2-7.1 0-14.3 0.7-21.3 2.1l-47.7 9.3v-201.4h-157c-0.9 76.4-63.4 138.3-140 138.3s-139-61.9-140-138.3h-163v165.8c57.8 17.3 100 70.9 100 134.2s-42.2 116.9-100 134.2v165.8h199.4l-7.8 46.6c-1 6.1-1.5 12.3-1.5 18.4 0 29.4 11.4 57 32.2 77.8 20.6 20.8 48.2 32.2 77.6 32.2M432.5 824.5c-82.8 0-150-67.2-150-150 0-8.5 0.7-16.9 2.1-25h-192.1v-240c55.2 0 100-44.8 100-100s-44.8-100-100-100v-240h250.6c-4.9 11.8-7.6 24.7-7.6 38.3 0 55.2 44.8 100 100 100s100-44.8 100-100c0-13.6-2.7-26.5-7.6-38.3h244.6v192.8c9.4-1.8 19.1-2.8 29-2.8 82.8 0 150 67.2 150 150s-67.2 150-150 150c-9.9 0-19.6-1-29-2.8v192.8h-192.1c1.4 8.1 2.1 16.5 2.1 25 0 82.8-67.2 150-150 150z"  horiz-adv-x="1024" />

    
    <glyph glyph-name="minimum" unicode="&#58992;" d="M72 434h880v-100h-880z"  horiz-adv-x="1024" />

    
    <glyph glyph-name="maximize" unicode="&#58993;" d="M860 684v-600h-696v600h696M960 784h-896v-800h896v800zM960 604.5h-896v-100h896v100z"  horiz-adv-x="1024" />

    
    <glyph glyph-name="authenticate" unicode="&#58994;" d="M511.6 765.2c34.4-42.8 96-101 192.6-101 54.5 0 106.8 10.8 152 31.4v-439.6c0-25.2-4.5-49.4-13.5-71.9-8.3-20.7-20.5-40.7-36.4-59.3-28.2-33-68.2-62.7-118.8-88.2-76-38.3-153.5-55.6-176.2-60.1-22.5 4.5-98.3 21.4-173.7 59.3-50.9 25.5-91 55.3-119.3 88.4-16 18.7-28.4 38.8-36.7 59.6-9 22.6-13.6 46.9-13.6 72.3v439.5c45.2-20.6 97.5-31.4 152-31.4 96.6 0 157.6 58.1 191.6 101M511.3 831.8c-7.6 0-63.3-127.6-191.3-127.6s-192 63.8-192 63.8v-512c0-255.7 383.3-320.3 383.3-320.3s384.9 64.7 384.9 320.3v512s-64-63.8-192-63.8c-128.1 0-185.3 127.5-192.9 127.6zM766.6 562l-339.5-339.4-169.7 169.7-28.2-28.3 198-198 367.7 367.7-28.3 28.3z"  horiz-adv-x="1024" />

    
    <glyph glyph-name="accountnum" unicode="&#58995;" d="M920 744v-720h-816v720h816M960 784h-896v-800h896v800zM424.9 605c57.9 0 105-47.1 105-105s-47.1-105-105-105-105 47.1-105 105 47.1 105 105 105M424.9 645c-80.1 0-145-64.9-145-145s64.9-145 145-145 145 64.9 145 145-64.9 145-145 145zM185.8 128.2c3.2 14.3 7.6 28.3 13.4 41.9 12.3 29.2 30 55.4 52.5 77.9 22.5 22.5 48.7 40.2 77.9 52.5 30.2 12.8 62.3 19.2 95.4 19.2s65.2-6.5 95.4-19.2c29.2-12.3 55.4-30 77.9-52.5 22.5-22.5 40.2-48.7 52.5-77.9 5.8-13.6 10.2-27.6 13.4-41.9h40.8c-25 131.8-140.8 231.5-280 231.5s-255-99.7-280-231.5h40.8zM739.3 596v-40h120v40h-120zM687.5 460.2h171.8v40h-171.8v-40zM687.5 364.4h171.8v40h-171.8v-40z"  horiz-adv-x="1024" />

    
    <glyph glyph-name="authorise" unicode="&#58996;" d="M646 454.4c49.6 0 90-40.4 90-90s-40.4-90-90-90-90 40.4-90 90 40.4 90 90 90M646 494.4c-71.8 0-130-58.2-130-130s58.2-130 130-130 130 58.2 130 130-58.2 130-130 130zM373.8 2.8c1.8 5.1 3.8 10.1 5.9 15.1 14.6 34.4 35.4 65.3 62 91.9 26.6 26.6 57.5 47.4 91.9 62 35.6 15.1 73.4 22.7 112.5 22.7s76.9-7.6 112.5-22.7c34.4-14.6 65.3-35.4 91.9-62s47.4-57.5 62-91.9c2.1-5 4.1-10 5.9-15.1h42.2c-41.7 134.1-166.8 231.6-314.6 231.6s-272.8-97.5-314.3-231.6h42.1zM768.1 742v-40h40v40h-40zM683.3 702h40v40h-40v-40zM252.9 51.8h-145.9v561.8h810v-357.6h40v575.8h-890v-820h185.9v40zM107 791.8h810v-138.2h-810v138.2z"  horiz-adv-x="1024" />

    
    <glyph glyph-name="staff" unicode="&#58997;" d="M512 725.7c42.7 0 82.9-16.6 113.1-46.9 30.2-30.2 46.9-70.4 46.9-113.1s-16.6-82.9-46.9-113.1c-30.2-30.2-70.4-46.9-113.1-46.9s-82.9 16.6-113.1 46.9-46.9 70.4-46.9 113.1 16.6 82.9 46.9 113.1c30.2 30.3 70.4 46.9 113.1 46.9M512 765.7c-110.5 0-200-89.5-200-200s89.5-200 200-200 200 89.5 200 200-89.5 200-200 200zM112.7 2.3c5.3 25.4 13.1 50.2 23.3 74.3 20.5 48.6 50 92.2 87.5 129.7s81.1 66.9 129.7 87.5c50.3 21.3 103.7 32 158.8 32s108.5-10.8 158.8-32c48.6-20.5 92.2-50 129.7-87.5s66.9-81.1 87.5-129.7c10.2-24.1 18-48.9 23.3-74.3h40.7c-39.5 207-221.5 363.5-440 363.5s-400.5-156.5-440-363.5h40.7zM670.8 293.7c-2 0.9-4.1 1.7-6.2 2.5-13.2-8.4-27.1-15.7-41.7-21.9-35.1-14.8-72.4-22.3-110.9-22.3s-75.8 7.5-110.9 22.4c-14.6 6.2-28.5 13.5-41.7 21.9-2.1-0.8-4.1-1.7-6.2-2.5-12.2-5.2-24.1-10.9-35.6-17.1 54.2-40.7 121.5-64.7 194.4-64.7s140.2 24 194.4 64.6c-11.5 6.2-23.4 11.9-35.6 17.1zM769.4 148.7h-200v-40h200v40z"  horiz-adv-x="1024" />

    
    <glyph glyph-name="asset" unicode="&#58998;" d="M512 792.1c110.7 0 215-12.3 293.9-34.7 35.8-10.2 65-22.1 84.5-34.7 18.6-12 21.3-19.7 21.6-20.6-0.2-0.9-3-8.6-21.6-20.6-19.5-12.5-48.7-24.5-84.5-34.7-78.9-22.4-183.2-34.7-293.9-34.7s-215 12.3-293.9 34.7c-35.8 10.2-65 22.1-84.5 34.7-18.6 12-21.3 19.7-21.6 20.6 0.2 0.9 3 8.6 21.6 20.6 19.5 12.5 48.7 24.5 84.5 34.7 78.9 22.3 183.2 34.7 293.9 34.7M512 832.1c-243 0-440-58.2-440-130s197-130 440-130 440 58.2 440 130-197 130-440 130zM112 704.2h-40v-641h40v641zM952 704.5h-40v-641h40v641zM625.1 514.7l-113.1-136.9-113.1 136.9-28.3-28.3 109.5-133.3h-118.1v-40h130v-67.3h-130v-40h130v-134.6h40v134.6h130v40h-130v67.3h130v40h-118.1l109.5 133.3-28.3 28.3zM319 429v40.4c-36.7 5.5-70.7 12.6-101 21.2-35.8 10.2-65 22.1-84.5 34.7-18.6 12-21.3 19.7-21.6 20.6v0.1h-39.9v-0.1c0-51.4 100.8-95.8 247-116.9zM319 272.7v40.4c-36.7 5.5-70.7 12.6-101 21.2-35.8 10.2-65 22.1-84.5 34.7-18.6 12-21.3 19.7-21.6 20.6v0.1h-39.9v-0.1c0-51.4 100.8-95.8 247-116.9zM701 428.4c148.4 20.9 251 65.6 251 117.4v0.1h-40v-0.1c-0.2-0.9-3-8.6-21.6-20.6-19.5-12.5-48.7-24.5-84.5-34.7-31.3-8.9-66.7-16.2-104.9-21.8v-40.3zM319 115.1v40.4c-36.7 5.5-70.7 12.6-101 21.2-35.8 10.2-65 22.1-84.5 34.7-18.6 12-21.3 19.7-21.6 20.6v0.1h-39.9v-0.1c0-51.4 100.8-95.8 247-116.9zM912 389.6c-0.2-0.9-3-8.7-21.6-20.6-19.5-12.5-48.7-24.5-84.5-34.7-31.3-8.9-66.7-16.2-104.9-21.8v-40.4c148.4 20.9 251 65.6 251 117.4v0.1h-40zM912 232c-0.2-0.9-3-8.7-21.6-20.6-19.5-12.5-48.7-24.5-84.5-34.7-31.3-8.9-66.7-16.2-104.9-21.8v-40.4c148.4 20.9 251 65.6 251 117.4v0.1h-40zM912 63.7v-0.5c-0.2-0.9-3-8.6-21.6-20.6-19.5-12.5-48.7-24.5-84.5-34.7-78.9-22.3-183.2-34.7-293.9-34.7s-215 12.4-293.9 34.8c-35.8 10.2-65 22.1-84.5 34.7-18.6 12-21.3 19.7-21.6 20.6v0.3l-40-0.3v-0.1c0-71.8 197-130 440-130s440 58.2 440 130v0.4l-40 0.1z"  horiz-adv-x="1024" />

    
    <glyph glyph-name="migrate" unicode="&#58999;" d="M363.9 740l99.3-111.6h456.8v-600.4h-816v712h259.9M381.8 780h-317.8v-792h896v680.4h-478.9l-99.3 111.6zM746.9 350.8l-198 198-28.3-28.3 178-178h-449.8v-40h449.8l-178-178 28.3-28.3 226.3 226.3-28.3 28.3z"  horiz-adv-x="1024" />

    
    <glyph glyph-name="start" unicode="&#59000;" d="M447 610.3l226.3-226.3-226.3-226.3-28.3 28.3 198 198-198 198 28.3 28.3zM512 784c-54 0-106.4-10.6-155.7-31.4-47.6-20.1-90.4-49-127.2-85.7-36.7-36.7-65.6-79.5-85.7-127.2-20.8-49.3-31.4-101.7-31.4-155.7s10.6-106.4 31.4-155.7c20.1-47.6 49-90.4 85.7-127.2 36.7-36.7 79.5-65.6 127.2-85.7 49.3-20.8 101.7-31.4 155.7-31.4s106.4 10.6 155.7 31.4c47.6 20.1 90.4 49 127.2 85.7 36.7 36.7 65.6 79.5 85.7 127.2 20.8 49.3 31.4 101.7 31.4 155.7s-10.6 106.4-31.4 155.7c-20.1 47.6-49 90.4-85.7 127.2-36.7 36.7-79.5 65.6-127.2 85.7-49.3 20.8-101.7 31.4-155.7 31.4M512 824c243 0 440-197 440-440s-197-440-440-440-440 197-440 440 197 440 440 440z"  horiz-adv-x="1024" />

    
    <glyph glyph-name="ban" unicode="&#59001;" d="M512 784c54 0 106.4-10.6 155.7-31.4 47.6-20.1 90.4-49 127.2-85.7 36.7-36.7 65.6-79.5 85.7-127.2 20.8-49.3 31.4-101.7 31.4-155.7s-10.6-106.4-31.4-155.7c-20.1-47.6-49-90.4-85.7-127.2-36.7-36.7-79.5-65.6-127.2-85.7-49.3-20.8-101.7-31.4-155.7-31.4s-106.4 10.6-155.7 31.4c-47.6 20.1-90.4 49-127.2 85.7-36.7 36.7-65.6 79.5-85.7 127.2-20.8 49.3-31.4 101.7-31.4 155.7s10.6 106.4 31.4 155.7c20.1 47.6 49 90.4 85.7 127.2 36.7 36.7 79.5 65.6 127.2 85.7 49.3 20.8 101.7 31.4 155.7 31.4M512 824c-243 0-440-197-440-440s197-440 440-440 440 197 440 440-197 440-440 440zM186.7 681l622.3-622.3 28.3 28.3-622.3 622.3-28.3-28.3z"  horiz-adv-x="1024" />

    
    <glyph glyph-name="import" unicode="&#59002;" d="M960 351.8v-384h-896v384h40v-344h816v344h40zM823.1 455.9l-311.1-311.1-311.1 311.1-28.3-28.3 339.4-339.4 339.4 339.4-28.3 28.3zM532 768h-40v-640h40v640z"  horiz-adv-x="1024" />

    
    <glyph glyph-name="export" unicode="&#59003;" d="M960 351.8v-384h-896v384h40v-344h816v344h40zM851.4 428.6l-339.4 339.4-339.4-339.4 28.3-28.3 311.1 311.1 311.1-311.1 28.3 28.3zM532 728.2h-40v-640h40v640z"  horiz-adv-x="1024" />

    
    <glyph glyph-name="setPlace" unicode="&#59004;" d="M700.2 513.6l11.4-58.2 4.2-21.3 20.1-8.1 0.3-0.1c0.8-0.3 1.6-0.6 2.4-1l19.9-8.4 67.2 45.1 42.1-42.1-32.8-49.1-12.1-18 8.5-19.9c0.4-0.9 0.8-1.9 1.3-3.1l8.1-20 21.2-4.2 58-11.4v-59.8l-79.1-15.7-8.1-20.1c-0.4-1-0.8-2.1-1.3-3.1l-8.5-19.9 12.1-18 32.9-49.1-42-42.2-67.3 44.9-19.9-8.4c-0.8-0.4-1.8-0.8-2.9-1.2l-20.1-8.1-4.2-21.3-11.5-58.3h-59.6l-11.6 58.5-4.2 21.1-20 8.1c-0.9 0.4-2 0.8-2.9 1.2l-19.9 8.5-18-12.1-49.6-33.2-42.2 42.4 45.4 67.7-8.4 19.9c-0.3 0.7-0.6 1.3-0.8 2l-0.2 0.4-8.1 20-21.2 4.2-58.7 11.8v59.6l80.1 15.8 8.1 20 0.3 0.6c0.2 0.6 0.5 1.2 0.7 1.8l8.4 19.9-12 18-33.3 49.8 42.1 42.1 67.6-45.4 20 8.5c0.9 0.4 1.7 0.7 2.6 1.1h0.1l20 8.1 4.2 21.2 11.6 58.5h59.6M733.1 553.6h-125.4l-18-90.7c-1.1-0.4-2.2-0.9-3.3-1.4l-76.9 51.6-88.5-88.6 51.6-77.1-1.2-3-91.1-17.9v-125.3l91-18.1 1.2-3-51.9-77.1 88.6-88.6 76.9 51.4 3.6-1.5 18-90.7h125.3l17.9 90.5 3.6 1.5 76.6-51.2 88.6 88.6-51.2 76.4c0.5 1.3 1.1 2.6 1.6 3.9l90.1 17.9v125.3l-90.3 17.8c-0.5 1.3-1.1 2.6-1.6 3.9l51 76.4-88.6 88.6-76.6-51.4c-1.1 0.5-2.2 0.9-3.2 1.3l-17.8 90.5zM670.1 343.6c44.1 0 80-35.9 80-80s-35.9-80-80-80-80 35.9-80 80 35.9 80 80 80M670.1 383.6c-66.3 0-120-53.7-120-120s53.7-120 120-120 120 53.7 120 120-53.7 120-120 120zM959.9 794.4h-896v-40h896v40zM959.9 611.3h-896v-40h896v40zM318.9 253.1h-255v-40h255v40zM318.9 432.2h-255v-40h255v40zM318.9 74h-255v-40h255v40z"  horiz-adv-x="1024" />

    
    <glyph glyph-name="policy" unicode="&#59005;" d="M917 754v-740h-810v740h810M957 794h-890v-820h890v820zM957 615.8h-890v-40h890v40zM723.3 704.2h-40v-40h40v40zM808.1 704.2h-40v-40h40v40zM718.5 486.3l-34.6-20 98.3-170.3-98.5-170.5 34.6-20 109.7 190.1 0.4 0.2-109.9 190.5zM335.8 466.3l-34.6 20-110-190.5 0.4-0.2 109.7-190.1 34.6 20-98.5 170.5 98.4 170.3zM671.5 519.7l-34.6 20-270-467.7 34.6-20 270 467.7z"  horiz-adv-x="1024" />

    
    <glyph glyph-name="strategy" unicode="&#59006;" d="M431.3 84.3h160v-40h-160zM209.6 719.555l42.425-42.426-28.284-28.284-42.426 42.426zM492 831.6h40v-60h-40zM92.4 408.9h60v-40h-60zM511.3 738.3c-176.7 0-311-123.3-311-300 0-126.5 94.3-231.1 171-307.8v-147h66.1v-47h40v47h68v-47h40v47h65.9v147c82.2 82.2 170 181.3 170 307.8 0 176.7-133.3 300-310 300zM411.3 23.4v79.6h200v-79.6h-200zM781.3 438.3c0-111.9-81.7-202.9-158.3-279.5l-11.7-11.8v-4h-79.3v256.3c0 16.5 13.5 30 30 30s30-13.5 30-30c0-12.5-7.6-23.2-18.4-27.7v-41.4c33.2 5.5 58.4 34.3 58.4 69 0 38.7-31.3 70-70 70-19.6 0-37.3-8.1-50-21-12.7 13-30.4 21-50 21-38.7 0-70-31.3-70-70 0-34.7 25.3-63.5 58.4-69v41.4c-10.8 4.5-18.4 15.2-18.4 27.7 0 16.5 13.5 30 30 30s30-13.5 30-30v-256.2h-80.7v4l-11.7 11.7c-36.3 36.3-77.7 80-108.9 128.6-33.9 52.7-50.4 102.1-50.4 150.9 0 37.8 6.9 73.5 20.6 105.9 13.1 31 32 58.4 56.2 81.4 24.2 23 52.9 40.9 85.4 53.3 33.6 12.9 70.3 19.4 108.9 19.4 38.6 0 75.1-6.5 108.7-19.4 32.3-12.4 60.9-30.3 85-53.3 24.1-23 42.9-50.4 55.9-81.4 13.4-32.4 20.3-68 20.3-105.9zM871.6 408.9h60v-40h-60zM800.29 648.884l-28.284 28.284 42.426 42.426 28.284-28.284z"  horiz-adv-x="1024" />

    
    <glyph glyph-name="calendar" unicode="&#59007;" d="M917 705v-691h-810v691h810M957 745h-890v-771h890v771zM957 566.8h-890v-40h890v40zM229.7 626.9h40v200h-40v-200zM754.3 826.9v-200h40v200h-40zM356.3 440.9h-160v-40h160v40zM592 440.9h-160v-40h160v40zM827.7 440.9h-160v-40h160v40zM356.3 302.4h-160v-40h160v40zM592 302.4h-160v-40h160v40zM827.7 302.4h-160v-40h160v40zM356.3 163.9h-160v-40h160v40zM592 163.9h-160v-40h160v40z"  horiz-adv-x="1024" />

    
    <glyph glyph-name="accAudit" unicode="&#59008;" d="M404.5 401.2h-224.7v40h224.7v-40zM179.8 308.5h186.2v40h-186.2v-40zM960 799.2v-336.3h-40v60h-816v-483.7h344.1v-40h-384.1v800h896zM920 602.9h-816v-40h816v40zM920 642.9v116.3h-816v-116.3h816zM960 228.8c0-143.6-116.4-260-260-260s-260 116.4-260 260 116.4 260 260 260 260-116.4 260-260zM902.7 314.5c-11.1 26.2-26.9 49.7-47.2 69.9-20.2 20.2-43.7 36.1-69.9 47.2-27.1 11.5-55.9 17.3-85.6 17.3s-58.5-5.8-85.6-17.3c-26.2-11.1-49.7-26.9-69.9-47.2-20.2-20.2-36.1-43.7-47.2-69.9-11.5-27.1-17.3-55.9-17.3-85.6s5.8-58.5 17.3-85.6c11.1-26.2 26.9-49.7 47.2-69.9 20.2-20.2 43.7-36.1 69.9-47.2 27.1-11.5 55.9-17.3 85.6-17.3s58.5 5.8 85.6 17.3c26.2 11.1 49.7 26.9 69.9 47.2 20.2 20.2 36.1 43.7 47.2 69.9 11.5 27.1 17.3 55.9 17.3 85.6s-5.8 58.5-17.3 85.6zM643.4 158.1l-84.8 84.9-28.3-28.3 113.2-113.2 226.3 226.3-28.3 28.3-198.1-198z"  horiz-adv-x="1024" />

    
    <glyph glyph-name="eye" unicode="&#59009;" d="M512 684c48.9 0 100.5-15.8 153.3-47.1 44.1-26.2 89.1-63 133.5-109.4 54.2-56.6 94.5-114 113.9-143.5-19.2-29.3-59-85.9-112.8-142.4-44.6-46.7-89.6-83.8-133.9-110.1-53.1-31.5-104.9-47.5-154-47.5-48.9 0-100.5 15.8-153.3 47.1-44.1 26.2-89.1 63-133.5 109.4-54.2 56.6-94.5 114-113.9 143.5 19.2 29.3 59 85.9 112.8 142.4 44.6 46.7 89.6 83.8 133.9 110.1 53.1 31.5 104.9 47.5 154 47.5M512 724c-247.4 0-448-340-448-340s200.6-340 448-340 448 340 448 340-200.6 340-448 340zM512 594c56.1 0 108.8-21.8 148.5-61.5s61.5-92.4 61.5-148.5-21.8-108.8-61.5-148.5-92.4-61.5-148.5-61.5-108.8 21.8-148.5 61.5-61.5 92.4-61.5 148.5 21.8 108.8 61.5 148.5 92.4 61.5 148.5 61.5M512 634c-138.1 0-250-111.9-250-250s111.9-250 250-250 250 111.9 250 250-111.9 250-250 250zM512 459c11.5 0 22.5-2.5 32.6-7.4l-1-27.8 32.4-0.6c7.2-11.7 11-25.2 11-39.2 0-41.4-33.6-75-75-75s-75 33.6-75 75 33.6 75 75 75M512 499c-63.5 0-115-51.5-115-115s51.5-115 115-115 115 51.5 115 115c0 30.5-11.9 58.2-31.2 78.8l-10.8 0.2 0.3 9.6c-19.9 16.5-45.4 26.4-73.3 26.4z"  horiz-adv-x="1024" />

    
    <glyph glyph-name="annotate" unicode="&#59010;" d="M512 784c54 0 106.4-10.6 155.7-31.4 47.6-20.1 90.4-49 127.2-85.7 36.7-36.7 65.6-79.5 85.7-127.2 20.8-49.3 31.4-101.7 31.4-155.7s-10.6-106.4-31.4-155.7c-20.1-47.6-49-90.4-85.7-127.2-36.7-36.7-79.5-65.6-127.2-85.7-49.3-20.8-101.7-31.4-155.7-31.4s-106.4 10.6-155.7 31.4c-47.6 20.1-90.4 49-127.2 85.7-36.7 36.7-65.6 79.5-85.7 127.2-20.8 49.3-31.4 101.7-31.4 155.7s10.6 106.4 31.4 155.7c20.1 47.6 49 90.4 85.7 127.2 36.7 36.7 79.5 65.6 127.2 85.7 49.3 20.8 101.7 31.4 155.7 31.4M512 824c-243 0-440-197-440-440s197-440 440-440 440 197 440 440-197 440-440 440zM532 637.9h-40v-40h40v40zM532 510.1h-40v-380h40v380z"  horiz-adv-x="1024" />

    
    <glyph glyph-name="message" unicode="&#59011;" d="M920 750.4v-600h-550.9l-116.2-116.2-116.2 116.2h-32.7v600h816M960 790.4h-896v-680h56.1l132.8-132.8 132.8 132.8h574.3v680zM792 611.3h-560v-40h560v40zM792 473.3h-560v-40h560v40zM574.5 335.4h-342.5v-40h342.5v40z"  horiz-adv-x="1024" />

    
    <glyph glyph-name="pause" unicode="&#59012;" d="M512 784c54 0 106.4-10.6 155.7-31.4 47.6-20.1 90.4-49 127.2-85.7 36.7-36.7 65.6-79.5 85.7-127.2 20.8-49.3 31.4-101.7 31.4-155.7s-10.6-106.4-31.4-155.7c-20.1-47.6-49-90.4-85.7-127.2-36.7-36.7-79.5-65.6-127.2-85.7-49.3-20.8-101.7-31.4-155.7-31.4s-106.4 10.6-155.7 31.4c-47.6 20.1-90.4 49-127.2 85.7-36.7 36.7-65.6 79.5-85.7 127.2-20.8 49.3-31.4 101.7-31.4 155.7s10.6 106.4 31.4 155.7c20.1 47.6 49 90.4 85.7 127.2 36.7 36.7 79.5 65.6 127.2 85.7 49.3 20.8 101.7 31.4 155.7 31.4M512 824c-243 0-440-197-440-440s197-440 440-440 440 197 440 440-197 440-440 440zM388.4 164h40v440h-40v-440zM595.6 604v-440h40v440h-40z"  horiz-adv-x="1024" />

    
    <glyph glyph-name="attended" unicode="&#59013;" d="M303.7 729.3c30.7 0 61-7.3 90-21.7 32-15.9 61.5-39.9 87.8-71.5l30.4-36.5 30.8 36.2c26.2 30.7 55.6 54.1 87.5 69.6 29.1 14.1 59.4 21.3 90.1 21.3 29.3 0 57.5-6.5 84-19.2 26.7-12.8 50.1-31.3 69.5-55 49.2-60 65.9-144.9 47.1-239.1-9.4-47.1-36.4-95.8-80.2-144.7-36.8-41.1-85.1-82.2-143.7-122-77.7-52.9-153.1-89.6-184.7-104.1-31.6 14.5-107.2 51.3-185 104.1-58.7 39.9-107.1 80.9-143.9 122-43.8 49-70.8 97.7-80.2 144.7-9.9 49.8-10.1 96.9-0.4 140 8.7 38.9 25 73.1 48.4 101.6 19.4 23.7 42.7 42.2 69.3 55.1 26.2 12.7 54.2 19.2 83.2 19.2M303.7 769.3c-150.1 0-283.2-146.6-239.8-363.8 47.6-238.3 448.3-406.8 448.3-406.8s400.2 168.5 447.8 406.8c43.4 217.2-89.7 361.1-239.8 361.1-71.2 0-146.3-32.5-208.1-104.9-61.8 74.5-137 107.6-208.4 107.6z"  horiz-adv-x="1024" />

    
    <glyph glyph-name="attend" unicode="&#59014;" d="M715.5 423v-190h190v-40h-190v-190h-40v190h-190v40h190v190h40zM720.3 766.6c-71.2 0-146.3-32.5-208.1-104.9-62 74.5-137.2 107.6-208.5 107.6-150.1 0-283.2-146.6-239.8-363.8 47.6-238.3 448.3-406.8 448.3-406.8s0.3 0.1 0.7 0.3v43.8c-0.3-0.1-0.5-0.2-0.8-0.3-31.6 14.5-107.2 51.3-185 104.1-58.7 39.9-107.1 80.9-143.9 122-43.8 49-70.8 97.7-80.2 144.7-9.9 49.8-10.1 96.9-0.4 140 8.7 38.9 25 73.1 48.4 101.6 19.4 23.7 42.7 42.2 69.3 55.1 26.3 12.7 54.4 19.2 83.3 19.2 30.7 0 61-7.3 90-21.7 32-15.9 61.5-39.9 87.8-71.5l30.4-36.5 30.8 36.2c26.2 30.7 55.6 54.1 87.5 69.6 29.1 14.1 59.4 21.3 90.1 21.3 29.3 0 57.5-6.5 84-19.2 26.7-12.8 50.1-31.3 69.5-55 49.2-60 65.9-144.9 47.1-239.1-9.4-47-36.3-95.5-79.9-144.4h52.1c32.8 42 57.2 87.8 67 136.5 43.5 217.3-89.7 361.3-239.7 361.2z"  horiz-adv-x="1024" />

    
    <glyph glyph-name="yonghu1" unicode="&#58883;" d="M934.4 96c57.6 83.2 89.6 179.2 89.6 288 0 281.6-230.4 512-512 512s-512-230.4-512-512c0-108.8 32-204.8 89.6-288 89.6-134.4 249.6-224 422.4-224s332.8 89.6 422.4 224zM64 384c0 249.6 198.4 448 448 448s448-198.4 448-448c0-83.2-25.6-166.4-64-236.8-64 76.8-153.6 128-256 153.6 38.4 32 64 83.2 64 140.8 0 108.8-83.2 192-192 192s-192-76.8-192-185.6c0-57.6 25.6-108.8 64-140.8-102.4-25.6-185.6-83.2-256-153.6-38.4 64-64 147.2-64 230.4zM384 448c0 70.4 57.6 128 128 128s128-57.6 128-128-57.6-128-128-128-128 57.6-128 128zM512-64c-134.4 0-262.4 64-339.2 160 76.8 96 204.8 160 339.2 160s262.4-64 339.2-160c-76.8-96-204.8-160-339.2-160z"  horiz-adv-x="1024" />

    
    <glyph glyph-name="loundSpeaker" unicode="&#59015;" d="M913.9 431.3c0 52.2-33.3 96.6-79.8 113.1v203.9l-641.1-125v-63.8h-82.9v-256.2h82.9v-63.9l47-7.9v-211.8h146.2v75.8h33.4v90h-33.4v21.4l447.9-75.5v186.8c46.5 16.5 79.8 60.9 79.8 113.1zM150.1 343.4v176.1h42.9v-176.2h-42.9zM233 303.4v286.2l392.6 76.1v-458.6l-392.6 66.2v30.1zM346.1 61h-66.1v18.3h66.2v-18.3zM346.1 108.3h-66.1v116.5l66.2-11.2v-105.3zM794.1 178.6l-128.5 21.7v472.1l128.5 21.6v-515.4zM850.5 374.8c-5-5-10.4-9.2-16.3-12.7v138.4c5.9-3.4 11.4-7.7 16.3-12.7 15.1-15.1 23.4-35.2 23.4-56.5 0-21.3-8.3-41.4-23.4-56.5z"  horiz-adv-x="1024" />

    
    <glyph glyph-name="alarm" unicode="&#59016;" d="M542 669.4c33.6 0 66.2-6.6 97-19.7 29.8-12.6 56.5-30.7 79.6-53.8 23-23 41.1-49.8 53.8-79.6 13.1-30.8 19.7-63.4 19.7-97v-330h-560.1v330c0 33.6 6.6 66.2 19.7 97 12.6 29.8 30.7 56.5 53.8 79.6 23 23 49.8 41.1 79.6 53.8 30.8 13.1 63.4 19.7 97 19.7h59.9M542 709.4h-60c-159.5 0-290-130.5-290-290v-370h640v370c0 159.5-130.5 290-290 290zM912 89.4h-800v-40h800v40zM612 35.6h-40v-40.8h-120v40.8h-40v-80.8h200v80.8zM512 773.2c31.2 0 56.9-23.9 59.7-54.3-9.9 0.9-19.8 1.4-29.7 1.4h-60c-9.9 0-19.8-0.5-29.7-1.4 2.8 30.4 28.5 54.3 59.7 54.3M512 813.2c-55.2 0-100-44.8-100-100 0-14.1 2.9-27.5 8.2-39.7 19.9 4.4 40.6 6.7 61.8 6.7h60c21.2 0 41.9-2.3 61.8-6.7 5.3 12.2 8.2 25.6 8.2 39.7 0 55.2-44.8 100-100 100zM822 172.1h-620v-40h620v40z"  horiz-adv-x="1024" />

    
    <glyph glyph-name="dataBase" unicode="&#59017;" d="M512 793.4c110.7 0 215-12.3 293.9-34.7 35.8-10.2 65-22.1 84.5-34.7 18.6-12 21.3-19.7 21.6-20.6-0.2-0.9-3-8.6-21.6-20.6-19.5-12.5-48.7-24.5-84.5-34.7-78.9-22.3-183.2-34.7-293.9-34.7s-215 12.3-293.9 34.7c-35.8 10.2-65 22.1-84.5 34.7-18.6 12-21.3 19.7-21.6 20.6 0.2 0.9 3 8.6 21.6 20.6 19.5 12.5 48.7 24.5 84.5 34.7 78.9 22.4 183.2 34.7 293.9 34.7M512 833.4c-243 0-440-58.2-440-130s197-130 440-130 440 58.2 440 130-197 130-440 130zM112 705.6h-40v-641h40v641zM952 705.9h-40v-641h40v641zM912 65v-0.5c-0.2-0.9-3-8.6-21.6-20.6-19.5-12.5-48.7-24.5-84.5-34.7-78.9-22.3-183.2-34.6-293.9-34.6s-215 12.3-293.9 34.7c-35.8 10.2-65 22.1-84.5 34.7-18.6 12-21.3 19.7-21.6 20.6v0.3l-40-0.3v-0.1c0-71.8 197-130 440-130s440 58.2 440 130v0.4l-40 0.1zM912 275.5v-0.5c-0.2-0.9-3-8.6-21.6-20.6-19.5-12.5-48.7-24.5-84.5-34.7-78.9-22.3-183.2-34.7-293.9-34.7s-215 12.3-293.9 34.7c-35.8 10.2-65 22.1-84.5 34.7-18.6 12-21.3 19.7-21.6 20.6v0.3l-40-0.3v-0.1c0-71.8 197-130 440-130s440 58.2 440 130v0.4l-40 0.2zM912 497v-0.5c-0.2-0.9-3-8.6-21.6-20.6-19.5-12.5-48.7-24.5-84.5-34.7-78.9-22.3-183.2-34.7-293.9-34.7s-215 12.3-293.9 34.7c-35.8 10.2-65 22.1-84.5 34.7-18.6 12-21.3 19.7-21.6 20.6v0.3l-40-0.3v-0.1c0-71.8 197-130 440-130s440 58.2 440 130v0.4l-40 0.2z"  horiz-adv-x="1024" />

    
    <glyph glyph-name="picture" unicode="&#59018;" d="M698.5 446c71.8 0 130 58.2 130 130s-58.2 130-130 130-130-58.2-130-130 58.2-130 130-130zM698.5 666c49.6 0 90-40.4 90-90s-40.4-90-90-90-90 40.4-90 90 40.4 90 90 90zM594 191.8l-334.8 334.8-115.2-115.3v-56.5l115.2 115.2 306.5-306.5zM64 832v-896h896v896h-896zM920-24h-816v816h816v-816zM880 119.2l-179.2 179.3-282.6-282.6h56.6l226 226 179.2-179.2z"  horiz-adv-x="1024" />

    
    <glyph glyph-name="uploadPic" unicode="&#59019;" d="M687.4 478.4l254.6-254.6-28.3-28.3-206.3 206.3v-465.8h-40v465.8l-206.2-206.3-28.3 28.3 254.5 254.6zM792.8 792h127.2v-127.1h40v167.1h-167.2v-40zM398.4-64v40h-107.2v-40h107.2zM291.2 832v-40h107.2v40h-107.2zM960 437.7h-40v-67.5h40v67.5zM565.6 832h-107.2v-40h107.2v40zM960 604.9h-40v-107.2h40v107.2zM231.2-24h-127.2v127.2h-40v-167.2h167.2v40zM732.8 832h-107.2v-40h107.2v40zM64 497.7h40v107.2h-40v-107.2zM64 330.5h40v107.2h-40v-107.2zM64 163.2h40v107.3h-40v-107.3zM104 664.9v127.1h127.2v40h-167.2v-167.1h40z"  horiz-adv-x="1024" />

    
    <glyph glyph-name="waitSession" unicode="&#59020;" d="M805.7 778v-460.6h-422.6l-110.2-110.2-110.2 110.2h-55.9v460.6h698.9M845.7 818h-778.9v-540.6h79.3l126.8-126.8 126.8 126.8h446v540.6zM276.8 582.6h-60v-60h60v60zM473.1 582.6h-60v-60h60v60zM669.5 582.6h-60v-60h60v60zM874.8 532.6v-40h42.4v-392h-45.9l-94.1-94.1-94.1 94.1h-365.9v20.1h-40v-60.1h389.4l110.6-110.6 110.7 110.7h69.3v472h-82.4z"  horiz-adv-x="1024" />

    
    <glyph glyph-name="excel" unicode="&#59021;" d="M476.7 345.6v-368h-368v368h368M516.7 385.6h-448v-448h448v448zM161.4 18.4l110.7 149.2-97.7 137.1h45.1l52-73.4c10.8-15.2 18.5-27 23-35.2 6.4 10.4 13.9 21.3 22.7 32.6l57.6 76h41.2l-100.6-135 108.4-151.4h-46.8l-72 102.3c-4 5.9-8.2 12.2-12.5 19.1-6.4-10.4-10.9-17.6-13.7-21.5l-71.9-99.8h-45.5zM795.3 367.8h-214.7v-40h214.8v40zM795.3 223.4h-214.7v-40h214.8v40zM683.1 832h-467.8v-397h40v357h411.2l16.6-16.6v-215.6h215.6l16.6-16.6v-567.2h-334.7v-40h374.8v623.8l-272.3 272.2zM723.1 599.8v135.6l135.6-135.6h-135.6zM795.3 512.2h-420v-40h420v40z"  horiz-adv-x="1024" />

    
    <glyph glyph-name="responseOrder" unicode="&#59022;" d="M852 792v-816h-680v816h680M892 832h-760v-896h760v896zM782 704h-540v-40h540v40zM782 576.2h-540v-40h540v40zM782 448.4h-540v-40h540v40zM692.3 312.7l-247.5-247.5-113.1 113.2-28.3-28.3 141.4-141.4 275.8 275.8-28.3 28.2z"  horiz-adv-x="1024" />

    
    <glyph glyph-name="send" unicode="&#59023;" d="M457.5 449.5l212.1-212.1-212.1-212.2-28.3 28.3 163.8 163.8h-401.5v40h401.6l-163.9 163.9 28.3 28.3zM91.1-61h94v40h-54v810h54v40h-94v-890zM932.9 599.7l-229.3 229.3h-470.7v-510.4h40v470.4h414.1l16.6-16.6v-172.7h172.7l16.6-16.6v-604.1h-620v177.1h-40v-217.1h700v660.7zM743.6 639.7v92.7l92.7-92.7h-92.7z"  horiz-adv-x="1024" />

    
    <glyph glyph-name="merge" unicode="&#59024;" d="M254.9 539.6l155.6-155.6-155.6-155.6-28.3 28.3 107.3 107.3h-262.5v40h262.5l-107.3 107.3 28.3 28.3zM76 832v-40h367.2v-816h-367.2v-40h407.2v896h-407.2zM769.1 539.6l28.3-28.3-107.3-107.3h262.5v-40h-262.5l107.3-107.3-28.3-28.3-155.6 155.6 155.6 155.6zM540.8 832v-896h407.2v40h-367.2v816h367.2v40h-407.2z"  horiz-adv-x="1024" />

    
    <glyph glyph-name="like" unicode="&#59025;" d="M223.3 376.3v-400h-100v400h100M263.3 416.3h-180v-480h180v480zM494.1 791.7c2.5 0 5.2-0.1 8-0.4 35.6-3.5 60.9-15.1 77.2-35.6 11.4-14.3 18.9-33.5 22.2-57.2 2.8-20.1 2.6-42.8-0.5-67.6-6.5-50.3-7.6-90.6-3.2-119.8 8.1-54.6 36.6-66.4 52.9-68.6 4.8-0.6 9.9-1 15.8-1 16.9 0 37.8 2.7 61.9 5.7 28.6 3.6 60.9 7.8 90.6 7.8 44.8 0 63.6-9.6 71.5-17.7 2.7-2.8 10.9-11.2 10.2-36.3-0.6-21.4-2.3-41.8-4-61.5-1.7-19.9-3.3-38.8-3.6-57.2-1.6-103.4-6.6-154.9-17.9-183.7-21.9-55.9-47.6-69.8-83.1-89-4.8-2.6-9.7-5.2-14.7-8.1-29-16.3-64.5-18.7-83.1-18.7-10 0-16.5 0.7-17.3 0.8l-2.1 0.3h-2.5l-409.2 1.8v370.6c36.5 17.5 100.9 57 148 133.8 36.6 59.7 41 131.1 44.9 194.1 2.2 35.7 4.3 69.5 12.3 90.1 2.6 6.6 5.5 11.2 8.7 13.5 3.6 2.6 9.3 3.9 17 3.9M494.1 831.7c-119.9 0-43.3-200.5-116.9-320.6-60.8-99.3-153.9-128.1-153.9-128.1v-437.2l449-2s8.6-1.1 22.1-1.1c24.9 0 66.6 3.6 102.7 23.9 42.6 24 84.8 39.1 115.4 117.3 14 35.7 19 92.4 20.6 197.7 0.5 34.8 6.4 73.9 7.5 118.3 2 77.2-56.2 95.1-121.7 95.1-56.9 0-119.3-13.5-152.5-13.5-3.9 0-7.4 0.2-10.4 0.6-16.4 2.2-28.4 42.9-15.4 143.7 9.6 74.2 2.1 192-134.7 205.3-4.1 0.4-8.1 0.6-11.8 0.6z"  horiz-adv-x="1024" />

    
    <glyph glyph-name="serve" unicode="&#59026;" d="M899 420.5c11 0 20-9 20-20v-250c0-11-9-20-20-20h-64c-11 0-20 9-20 20v250c0 11 9 20 20 20h64M899 460.5h-64c-33.1 0-60-26.9-60-60v-250c0-33.1 26.9-60 60-60h64c33.1 0 60 26.9 60 60v250c0 33.1-26.8 60-60 60zM162 460.5v71.6c0 35.1 6.9 69.2 20.4 101.2 13.1 31 31.8 58.8 55.7 82.7 23.9 23.9 51.7 42.6 82.7 55.7 32 13.5 66.1 20.4 101.2 20.4h180c35.1 0 69.2-6.9 101.2-20.4 31-13.1 58.8-31.8 82.7-55.7 23.9-23.9 42.6-51.7 55.7-82.7 13.5-32 20.4-66.1 20.4-101.2v-71.6h40v71.6c0 165.7-134.3 300-300 300h-180c-165.7 0-300-134.3-300-300v-71.6h40zM189 460.5h-64c-33.1 0-60-26.9-60-60v-208.4h40v208.4c0 11 9 20 20 20h64c11 0 20-9 20-20v-250c0-11-9-20-20-20h-32v-40h32c33.1 0 60 26.9 60 60v250c0 33.1-26.9 60-60 60zM548.5 35.4h-343.5c-55.1 0-100 44.9-100 100v156.6h-40v-156.6c0-77.3 62.7-140 140-140h343.5v40zM657.2 56.7c8 0 15.7-3.2 21.5-9s9-13.4 9-21.5v-19.2c0-8-3.2-15.7-9-21.5s-13.4-9-21.5-9h-59.2c-8 0-15.7 3.2-21.5 9s-9 13.4-9 21.5v19.2c0 8 3.2 15.7 9 21.5s13.4 9 21.5 9h59.2M657.2 96.7h-59.2c-38.7 0-70.4-31.7-70.4-70.4v-19.2c0-38.7 31.7-70.4 70.4-70.4h59.2c38.7 0 70.4 31.7 70.4 70.4v19.2c0 38.7-31.7 70.4-70.4 70.4z"  horiz-adv-x="1024" />

    
    <glyph glyph-name="link" unicode="&#59027;" d="M912.9 492.1l-163.3-163.3-35.4 35.4 163.3 163.3c9.4 9.4 14.5 21.9 14.5 35.4 0 13.4-5.2 26-14.5 35.4l-151.3 151.2c-9.4 9.4-21.9 14.5-35.4 14.5-13.4 0-26-5.2-35.4-14.5l-246-246.1c-9.4-9.4-14.5-21.9-14.5-35.4 0-13.4 5.2-26 14.5-35.4l51.7-51.7-35.4-35.4-51.7 51.7c-38.9 38.9-38.9 102.5 0 141.4l246.1 246.1c38.9 38.9 102.5 38.9 141.4 0l151.3-151.3c39-38.7 39-102.4 0.1-141.3zM649.9 370.6l-91.5 91.5-35.4-35.4 91.5-91.5c9.4-9.4 14.5-21.9 14.5-35.4 0-13.4-5.2-26-14.5-35.4l-246-245.9c-9.4-9.4-21.9-14.5-35.4-14.5-13.4 0-26 5.2-35.4 14.5l-151.2 151.3c-9.4 9.4-14.5 21.9-14.5 35.4 0 13.4 5.2 26 14.5 35.4l157.5 157.4-35.4 35.4-157.5-157.5c-38.9-38.9-38.9-102.5 0-141.4l151.3-151.3c38.9-38.9 102.5-38.9 141.4 0l246.1 246.1c38.9 38.8 38.9 102.4 0 141.3z"  horiz-adv-x="1024" />

    
    <glyph glyph-name="community" unicode="&#59028;" d="M508.4 310.7c100.2 0 181.5 81.3 181.5 181.5s-81.3 181.5-181.5 181.5-181.5-81.3-181.5-181.5c0-100.3 81.3-181.5 181.5-181.5zM408.4 592.2c26.7 26.7 62.3 41.4 100.1 41.4s73.3-14.7 100.1-41.4c26.7-26.7 41.4-62.3 41.4-100.1s-14.7-73.3-41.4-100.1c-26.7-26.7-62.3-41.4-100.1-41.4s-73.3 14.7-100.1 41.4c-26.7 26.7-41.4 62.3-41.4 100.1-0.1 37.9 14.6 73.4 41.4 100.1zM78.4 4.1c75.3 181 239.5 306.6 430 306.6s354.7-125.5 430-306.6h-43.6c-20.9 46.1-48.1 88-81.1 124.8-39.9 44.6-86.3 79.6-137.9 104-53 25.1-109.3 37.8-167.4 37.8s-114.3-12.7-167.4-37.8c-51.6-24.4-98-59.4-137.9-104-33-36.9-60.2-78.7-81.1-124.8h-43.6zM138.4 604.1c0 88.3 71.6 159.8 159.8 159.8 48.7 0 92.3-21.8 121.6-56.2-13.2-5-25.8-11-37.8-18.1-22.5 22.1-52.3 34.2-83.9 34.2-32 0-62.1-12.5-84.7-35.1s-35.1-52.7-35.1-84.7 12.5-62.1 35.1-84.7c13-13 28.6-22.7 45.5-28.6-0.4-5.6-0.6-11.2-0.6-16.8 0-8.4 0.4-16.8 1.2-25-69.5 17.3-121.1 80.2-121.1 155.2zM602.4 705.6c29.3 35.6 73.7 58.3 123.4 58.3 88.3 0 159.8-71.6 159.8-159.8 0-77.6-55.3-142.3-128.6-156.8 0.9 8.8 1.4 17.6 1.4 26.6 0 4.9-0.2 9.8-0.4 14.7 19.7 5.5 37.7 15.9 52.6 30.8 22.6 22.6 35.1 52.7 35.1 84.7s-12.5 62.1-35.1 84.7-52.7 35.1-84.7 35.1-62.1-12.5-84.7-35.1l-1.8-1.8c-11.8 7.2-24.2 13.4-37 18.6zM268.9 402c-48.3-7-93.2-31.3-128.5-70.1-11.7-12.9-22.1-27-30.9-42.2h-45.3c38.9 80.3 111.1 138.2 196.3 151.5 1.8-13.5 4.6-26.6 8.4-39.2zM959.8 289.6h-45.3c-8.9 15.2-19.2 29.3-30.9 42.2-37 40.7-84.4 65.4-135.4 71 3.8 12.7 6.6 25.8 8.3 39.3 88.2-11.1 163.3-70 203.3-152.5z"  horiz-adv-x="1024" />

    
    <glyph glyph-name="myOrder" unicode="&#59029;" d="M852 792v-816h-680v816h680M892 832h-760v-896h760v896zM429.5 30h42.8c27.6 65.6 86.2 111 153.9 111s126.3-45.4 153.9-111h42.8c-30.4 88.3-107 151-196.7 151 52.2 0 94.5 42.3 94.5 94.5s-42.3 94.5-94.5 94.5-94.5-42.3-94.5-94.5 42.3-94.5 94.5-94.5c-89.7 0-166.3-62.7-196.7-151zM571.8 275.5c0 30 24.4 54.5 54.5 54.5s54.5-24.4 54.5-54.5-24.5-54.5-54.6-54.5-54.4 24.5-54.4 54.5zM782 668h-540v-40h540v40zM575.1 540.2h-333.1v-40h333.1v40z"  horiz-adv-x="1024" />

    
    <glyph glyph-name="oss" unicode="&#59031;" d="M618.4 727.6c-161.5 0-296.9-111.4-333.8-261.5-3.3 0.2-6.6 0.3-9.9 0.3-117.5-0-212.7-95.3-212.7-212.7 0-58.8 23.9-111.8 62.3-150.3 38.5-38.5 91.7-62.2 150.4-62.2 58.8 0 112 24.1 150.5 62.6 33.4 33.4 52.1 78 57.5 127.6l-77 6c-17.5 2.2-23.1 15.4-12.4 29.5l130.5 161.4c10.5 14.1 24.9 12.4 31.8-3.9l74-180.8c6.9-16.2-1.8-27.7-19.3-25.6l-57.3 5.3c-6.5-59.9-33.4-112.8-71.1-154.7 41.9-18.1 88.1-28.3 136.6-28.3 189.7 0.1 343.5 153.9 343.5 343.7 0 189.8-153.8 343.6-343.6 343.6z"  horiz-adv-x="1024" />

    
    <glyph glyph-name="nav-log-center" unicode="&#59117;" d="M789.2 749v60h-45v-60h-464.4v60h-45v-60h-170.8v-790h896v790h-170.8zM915 4h-806v700h125.8v-75h45v75h464.5v-75h45v75h125.7v-700zM247 513.7h530v-45h-530v45zM247 366.5h530v-45h-530v45zM247 219.3h390v-45h-390v45z"  horiz-adv-x="1024" />

    
    <glyph glyph-name="nav-process-center" unicode="&#59118;" d="M789.5 258.7v147.5h-255v103.1h202.5v300h-450v-300h202.5v-103.1h-255v-147.5h-167.5v-300h380v300h-167.5v102.5h465v-102.5h-167.5v-300h380v300h-167.5zM332 764.3h360v-210h-360v210zM402 3.7h-290v210h290v-210zM912 3.7h-290v210h290v-210z"  horiz-adv-x="1024" />

    
    <glyph glyph-name="nav-account-manage" unicode="&#59119;" d="M860.8 510h-190v45h190v-45zM208.9 122.8h-45.7c23.9 146.7 124.5 257.7 246.2 262.6-67.9 4.3-121.6 60.7-121.6 129.7 0 71.8 58.2 130 130 130s130-58.2 130-130c0-69-53.7-125.4-121.6-129.7 121.7-4.9 222.3-115.9 246.2-262.6h-45.7c-3 16-7 31.7-12.1 47-11.4 34.4-27.7 65.1-48.4 91.3-40.4 51.3-93.1 79.5-148.5 79.5s-108.1-28.2-148.5-79.5c-20.7-26.2-36.9-56.9-48.4-91.3-5-15.2-9-30.9-11.9-47zM417.8 430.2c46.9 0 85 38.1 85 85s-38.1 85-85 85-85-38.1-85-85 38.1-85 85-85zM730.8 356h130v45h-130v-45zM960 809v-850h-896v850h896zM915 764h-806v-760h806v760z"  horiz-adv-x="1024" />

    
    <glyph glyph-name="nav-oper-center" unicode="&#59120;" d="M64 809v-850h896v850h-896zM915 4h-806v760h806v-760zM728.1 670.1h-45v45h45v-45zM838.1 670.1h-45v45h45v-45zM444.2 92l-42.3 15.4 177.9 488.6 42.3-15.4-177.9-488.6zM796.7 344l-117.1 139.6 34.5 28.9 141.4-168.5-141.4-168.5-34.5 28.9 117.1 139.6zM168.5 344l141.5 168.5 34.5-28.9-117.2-139.6 117.1-139.6-34.5-28.9-141.4 168.5z"  horiz-adv-x="1024" />

    
    <glyph glyph-name="nav-event-center" unicode="&#59121;" d="M232 809v-171h-150v-679h860v850h-710zM232 4h-105v589h105v-589zM897 4h-620v760h620v-760zM787 528.7h-420v45h420v-45zM787 361.5h-420v45h420v-45zM477 239.3h310v-45h-310v45z"  horiz-adv-x="1024" />

    
    <glyph glyph-name="nav-system-set" unicode="&#59122;" d="M847.6 313.5l54.1 54.1-31.8 31.8-54.1-54.1c-23.9 18.5-52.8 30.9-84.3 34.9v76.4h-45v-76.4c-31.5-4-60.4-16.5-84.3-34.9l-54.1 54.1-31.8-31.8 54.1-54.1c-18.5-23.9-30.9-52.8-34.9-84.3h-76.5v-45h76.4c4-31.5 16.5-60.4 34.9-84.3l-54.1-54.1 31.8-31.8 54.1 54.1c23.9-18.5 52.8-30.9 84.3-34.9v-76.4h45v76.4c31.5 4 60.4 16.5 84.3 34.9l54.1-54.1 31.8 31.8-54.1 54.1c18.5 23.9 30.9 52.8 34.9 84.3h76.6v45h-76.4c-4.1 31.5-16.5 60.3-35 84.3zM837.9 189.9c-2.9-22.7-11.9-44.3-25.9-62.5l-10.3-13.4-13.4-10.3c-18.2-14.1-39.8-23-62.5-25.9l-16.8-2.2-16.8 2.2c-22.7 2.9-44.3 11.9-62.5 25.9l-13.4 10.3-10.3 13.4c-14.1 18.2-23 39.8-25.9 62.5l-2.2 16.8 2.2 16.8c2.9 22.6 11.9 44.3 25.9 62.5l10.3 13.4 13.4 10.3c18.2 14.1 39.8 23 62.5 25.9l16.8 2.2 16.8-2.2c22.7-2.9 44.3-11.9 62.5-25.9l13.4-10.3 10.3-13.4c14.1-18.2 23-39.8 25.9-62.5l2.2-16.8-2.2-16.8zM960 811.3v-372.2h-45v327.2h-806v-420h318.1v-45h-318.1v-85h318.1v-45h-30v-125h30v-45h-205.1v45h130.1v125h-288.1v640h896z"  horiz-adv-x="1024" />

    
    <glyph glyph-name="nav-asset-monitor" unicode="&#59123;" d="M534.5 729.9v-45h-45v45h45zM196 560.5l-22.5-39 39-22.5 22.5 39-39 22.5zM828 143.7l22.5 39-39 22.5-22.5-39 39-22.5zM173.5 182.6l22.5-39 39 22.5-22.5 39-39-22.5zM850.5 521.5l-22.5 39-39-22.5 22.5-39 39 22.5zM285.2 583.2l302.4-447.4 37.3 25.2-302.4 447.4-37.3-25.2zM512 799.6c-247.1 0-447.5-200.4-447.5-447.5 0-127.3 53.1-242.2 138.4-323.6h69.7c-15.9 11.8-31 24.8-45.2 39-37 37-66 80-86.3 128-21 49.6-31.6 102.3-31.6 156.7s10.6 107.1 31.6 156.7c20.3 47.9 49.3 91 86.3 128s80 66 128 86.3c49.6 21 102.3 31.6 156.7 31.6s107.1-10.6 156.7-31.6c47.9-20.3 91-49.3 128-86.3s66-80 86.3-128c21-49.6 31.6-102.3 31.6-156.7s-10.8-107.2-31.8-156.8c-20.3-47.9-49.3-91-86.3-128-14.2-14.2-29.3-27.2-45.2-39h69.7c85.3 81.5 138.4 196.4 138.4 323.6 0 247.2-200.4 447.6-447.5 447.6z"  horiz-adv-x="1024" />

    
    <glyph glyph-name="nav-asset-manage" unicode="&#59124;" d="M960 689.1c0 66.3-200.6 120-448 120s-448-53.7-448-120v-606.1c2.3-68.6 202-124.1 448-124.1s445.6 55.4 448 124.1v606.1zM138.6 706.3c22 10.7 52.6 20.9 88.6 29.3 78.4 18.4 179.5 28.5 284.8 28.5s206.4-10.1 284.8-28.5c36-8.4 66.6-18.6 88.6-29.3 15.2-7.4 23-13.4 26.9-17.2-3.9-3.7-11.7-9.8-26.9-17.2-22-10.7-52.6-20.9-88.6-29.3-78.4-18.4-179.5-28.5-284.8-28.5s-206.4 10.1-284.8 28.5c-36 8.4-66.6 18.6-88.6 29.3-15.2 7.4-23 13.4-26.9 17.2 3.9 3.7 11.8 9.8 26.9 17.2zM886.7 65.2c-21.6-11.3-52-22-87.9-31-78.6-19.5-180.4-30.3-286.7-30.3s-208.1 10.8-286.7 30.3c-35.9 8.9-66.3 19.6-87.9 31-18.7 9.8-26.3 17.8-28.3 20.9v550.5c72.7-40 225.8-67.5 403-67.5s330.3 27.5 403 67.5v-550.5c-2.2-3.2-9.9-11.1-28.5-20.9zM552 359h79v-45h-96.5v-52h96.5v-45h-96.5v-120.5h-45v120.5h-96.5v45h96.5v52h-96.5v45h79l-78.6 93.7 34.5 28.9 84.1-100.3 84.2 100.3 34.5-28.9-78.7-93.7z"  horiz-adv-x="1024" />

    
    <glyph glyph-name="nav-self-service" unicode="&#59125;" d="M102.4-41.3c9.3 239.5 189.1 430.6 409.6 430.6s400.4-191.1 409.6-430.6h-45c-2 48.3-11.7 95.2-28.8 139.6-18.6 48.4-45.3 91.7-79.1 128.9-33.6 36.9-72.6 65.8-116 85.9-44.6 20.7-91.9 31.2-140.6 31.2s-96.1-10.5-140.6-31.2c-43.4-20.1-82.4-49-116-85.9-33.9-37.2-60.5-80.6-79.1-128.9-17.1-44.4-26.8-91.3-28.8-139.6h-45.2zM302 599.3c0 116 94 210 210 210s210-94 210-210-94-210-210-210-210 94-210 210zM347 599.3c0-44.1 17.2-85.5 48.3-116.7 31.2-31.2 72.6-48.3 116.7-48.3s85.5 17.2 116.7 48.3c31.2 31.2 48.3 72.6 48.3 116.7 0 44.1-17.2 85.5-48.3 116.7-31.2 31.2-72.6 48.3-116.7 48.3s-85.5-17.2-116.7-48.3c-31.1-31.2-48.3-72.6-48.3-116.7z"  horiz-adv-x="1024" />

    
    <glyph glyph-name="fuzhi" unicode="&#58922;" d="M593.92 486.4h-102.4v102.4c0 22.528-18.432 40.96-40.96 40.96s-40.96-18.432-40.96-40.96v-102.4h-102.4c-22.528 0-40.96-18.432-40.96-40.96s18.432-40.96 40.96-40.96h102.4v-102.4c0-22.528 18.432-40.96 40.96-40.96s40.96 18.432 40.96 40.96v102.4h102.4c22.528 0 40.96 18.432 40.96 40.96s-18.432 40.96-40.96 40.96z m266.24 163.84h-81.92V732.16c0 22.528-18.432 40.96-40.96 40.96H163.84c-22.528 0-40.96-18.432-40.96-40.96v-573.44c0-22.528 18.432-40.96 40.96-40.96h81.92v-81.92c0-22.528 18.432-40.96 40.96-40.96h573.44c22.528 0 40.96 18.432 40.96 40.96V609.28c0 22.528-18.432 40.96-40.96 40.96zM225.28 199.68c-12.288 0-20.48 8.192-20.48 20.48V670.72c0 12.288 8.192 20.48 20.48 20.48h450.56c12.288 0 20.48-8.192 20.48-20.48v-450.56c0-12.288-8.192-20.48-20.48-20.48H225.28z m593.92-102.4c0-12.288-8.192-20.48-20.48-20.48H348.16c-12.288 0-20.48 8.192-20.48 20.48v20.48h409.6c22.528 0 40.96 18.432 40.96 40.96V568.32h20.48c12.288 0 20.48-8.192 20.48-20.48v-450.56z"  horiz-adv-x="1024" />

    
    <glyph glyph-name="jiankongxitong" unicode="&#58885;" d="M864.9 768.9H159.7c-31.7 0-57.8-26.1-57.8-59.7v-507.4c0-33.6 26.1-59.7 57.8-59.7h270.5C383.6 116 350 82.4 350 82.4c-24.3 0-44.8-13.1-44.8-29.8s20.5-29.8 44.8-29.8h352.6c24.3 0 44.8 13.1 44.8 29.8s-20.5 29.8-44.8 29.8c0 0-33.6 33.6-78.4 59.7H863c31.7 0 57.8 26.1 57.8 59.7V709.2c2 33.6-24.1 59.7-55.9 59.7m0-388c0-33.6-26.1-59.7-57.8-59.7H219.4c-31.7 0-57.8 26.1-57.8 59.7V649.5c0 33.6 26.1 59.7 57.8 59.7h585.8c31.7 0 57.8-26.1 57.8-59.7l1.9-268.6m0 0z"  horiz-adv-x="1024" />

    
    <glyph glyph-name="shipindianbo" unicode="&#58886;" d="M659.8 126.6H164.1c-33 0-60 27-60 60V574.5c0 33 27 60 60 60h495.7c33 0 60-27 60-60v-387.9c0-33-27-60-60-60zM724.4 366.9c-8.1 7.5-8.1 19.7 0 27.2l182.9 169.7c8.1 7.5 14.7 4.6 14.7-6.4v-353.8c0-11-6.6-13.9-14.7-6.4L724.4 366.9z"  horiz-adv-x="1024" />

    
    <glyph glyph-name="yunshujukuguanli" unicode="&#58887;" d="M740.6 488.3c-120.8 0-218.8-30.6-218.8-68.4v-54.7c0-37.8 97.9-68.4 218.8-68.4s218.8 30.6 218.8 68.4V420c-0.1 37.7-98 68.3-218.8 68.3zM740.6 255.9c-120.8 0-218.8 30.6-218.8 68.4v-82c0-37.8 97.9-68.4 218.8-68.4s218.8 30.6 218.8 68.4v82c-0.1-37.8-98-68.4-218.8-68.4zM740.6 132.8c-120.8 0-218.8 30.6-218.8 68.4v-82c0-37.8 97.9-68.4 218.8-68.4s218.8 30.6 218.8 68.4v82c-0.1-37.8-98-68.4-218.8-68.4zM495.1 236c0 0.6-0.1 1.2-0.1 1.9v91c0-0.6 0-1.2 0.1-1.8v45.5c0 0.6-0.1 1.2-0.1 1.8v60.7C495 477 603.7 511 737.7 511c24.7 0 48.5-1.2 71-3.3-40.2 53.2-103.6 88.8-175.9 92.3-35.9 71.8-111.2 121-198.9 121-117.3 0-213.7-88.7-221.1-200.2-86.5-24-149.5-97.1-149.5-183.4 0-101.9 87.7-185.8 197.6-191.8h234v46.7c0-0.6 0-1.2 0.1-1.8V236z m-39 423.1c-89.6-4-151.3-60.3-167-141.6 0-0.1-3.9-14.3-18.7-10.8-8.3 1.6-8.1 16.2-8.1 18.3v0.3c0 0.3 0 0.6 0.1 0.8 0 0.1 0.1 0.3 0.1 0.4 0 0.1 0 0.2 0.1 0.2 19.3 88.5 95 152.8 192.6 159.5 0.6 0 17 2.2 18.7-12.8 1.7-15.5-17.7-14.3-17.8-14.3z"  horiz-adv-x="1024" />

    
    <glyph glyph-name="duixiangchucun" unicode="&#58888;" d="M679.1 591.4h-335c-3.3 0-6 2.7-6 6v41c0 3.3 2.7 6 6 6h335c3.3 0 6-2.7 6-6v-41c0-3.3-2.7-6-6-6zM721.9 485.3H301.3c-3.3 0-6 2.7-6 6v41c0 3.3 2.7 6 6 6h420.6c3.3 0 6-2.7 6-6v-41c0-3.3-2.7-6-6-6zM918.6 454.4c-4.5 44.2-33.5 91.8-99.1 216.6-72.2 137-153.3 123.7-153.3 123.7H359.4S278.3 808 206.2 670.9c-65.7-124.8-94.6-172.4-99.1-216.6-4.2-41.7-16.5-342.4 23.6-450.9 1.1-3 2.2-5.8 3.4-8.5 3.7-6.4 9.3-11.6 16.1-14.7 4.9-1.2 11.3-2.3 18.8-3.3h687.7c0.3 0 0.5 0.1 0.8 0.1 0.7 0 1.4-0.1 2.2-0.1h14.5c6-0.1 11.3 3.6 13.2 9.1 0.6 1.6 2.6 5.5 2.9 6.2 1.7 3.6 3.3 7.5 4.8 11.7 39.9 109 27.7 408.9 23.5 450.5z m-194-293.5c0-20.9-17.5-38-38.8-38h-346c-21.3 0-38.8 17.1-38.8 38v60.9c0 20.9 17.5 38 38.8 38h346.1c21.3 0 38.8-17.1 38.8-38v-60.9z m49.6 280.2H512.8 251.4c-99.1 0 10.5 233.5 49.6 243.1 52.1 12.8 371.5 12.8 423.6 0 39.1-9.6 148.7-243.1 49.6-243.1z"  horiz-adv-x="1024" />

    
    <glyph glyph-name="xitongshezhi" unicode="&#58889;" d="M884.9 461.3c-7.7 8.9-23.3 13.3-34.5 9.7l-8.4-2.7c-20.6-5.1-43-2.6-62.9 8.6-20.1 11.3-33.9 29.4-40.1 49.8l-2 8.3c-2.8 11.5-14.6 22.6-26.2 24.6 0 0-10.5 1.8-36.9 1.5-26.4-0.3-36.8-2.2-36.8-2.2-11.6-2.2-23.1-13.5-25.6-25l-1.9-8.6c-5.8-20.4-19.2-38.7-38.8-50.3-19.7-11.7-42.2-14.6-63-9.8l-8.2 2.4c-11.3 3.4-26.7-1.3-34.3-10.4 0 0-6.7-8.2-19.7-31.2-12.9-23-16.4-33-16.4-33-3.9-11.2 0.1-26.8 8.9-34.8l6.3-5.8c14.8-15.3 24-36.1 24.3-59.1 0.3-22.9-8.5-43.9-22.9-59.5l-6.2-5.9c-8.5-8.1-12.2-23.9-8-34.9 0 0 3.7-9.9 17.2-32.7 13.5-22.8 20.4-30.8 20.4-30.8 7.7-9 23.3-13.3 34.5-9.8l7.9 2.6c20.7 5.2 43.3 2.7 63.4-8.6 20-11.3 33.8-29.4 40.1-49.8l2-8.2c2.7-11.5 14.5-22.5 26.2-24.5 0 0 10.4-1.8 36.9-1.5 26.5 0.2 36.8 2.2 36.8 2.2 11.6 2.2 23.1 13.5 25.6 25l1.8 8.2c5.8 20.5 19.1 38.9 38.9 50.6 19.8 11.7 42.3 14.6 63.1 9.8l8-2.4c11.3-3.3 26.7 1.3 34.2 10.4 0 0 6.7 8.2 19.7 31.3 12.9 23 16.4 33.1 16.4 33.1 3.9 11.2-0.2 26.8-8.9 34.8l-6.4 5.9c-14.7 15.3-23.9 36-24.2 58.9-0.2 23.1 8.5 44 22.9 59.7l6.1 5.8c8.6 8.1 12.2 23.9 8.1 34.9 0 0-3.7 9.9-17.2 32.7-13.3 22.7-20.2 30.7-20.2 30.7zM720.6 221.8c-40.5-24-92.8-10.5-116.9 30.1-24 40.6-10.7 92.9 29.8 116.9s92.8 10.5 116.8-30.1c24.2-40.6 10.8-92.9-29.7-116.9zM376.9 170.1c-5.1 13.5-0.6 32.8 9.8 42.7l7.6 7.2c17.6 19.1 28.3 44.7 28 72.7-0.1 9.8-1.6 19.3-4.2 28.4H219.4c-31.7 0-57.8 26.1-57.8 59.7V649.5c0 33.6 26.1 59.7 57.8 59.7h585.8c31.7 0 57.8-26.1 57.8-59.7l1-145c5 0.5 9.9 1.3 14.7 2.5l10.2 3.2c9.8 3.1 22.1 1.3 31.9-3.9V709.2c1.9 33.6-24.3 59.7-56 59.7H159.7c-31.7 0-57.8-26.1-57.8-59.7v-507.4c0-33.6 26.1-59.7 57.8-59.7H391c-10.9 19.4-14.1 28-14.1 28zM552.4 73.1c-24.6 13.8-52.2 16.8-77.5 10.5l-9.7-3.2c-13.8-4.3-32.8 1-42.2 12 0 0-7.2 8.4-21.4 31.7-31.1-21.4-51.5-41.8-51.5-41.8-24.3 0-44.8-13.1-44.8-29.8s20.5-29.8 44.8-29.8h247.6c-8.9 20.6-24.3 38.6-45.3 50.4z"  horiz-adv-x="1024" />

    
    <glyph glyph-name="xiaoxizhongxin" unicode="&#58891;" d="M621.7 111.1c-0.1-53.8-48.5-97.4-109.1-97.4-60.1 0-108.9 43.4-109 97.4h218.1zM585.5 683c0 34.9-32.6 63.4-72.8 63.4-40.2 0-72.8-28.4-72.8-63.4 0-3.6 0.4-7.1 1-10.5C340.3 642 267.2 564 267.2 453.2v-122.1s-9.4-106.3-44.9-107.4c-21.1 0-37.4-14.2-37.4-31.7 0-17.6 16.3-31.7 36.4-31.7H804c20.2 0 36.4 14.2 36.4 31.7 0 17.6-16.3 31.7-36.4 31.7-36.4 0-45.4 107.4-45.4 107.4V453.2c0 110.9-68.2 189-174.1 219.4 0.7 3.4 1 6.9 1 10.4z"  horiz-adv-x="1024" />

    
    <glyph glyph-name="tuisongxiaoxi" unicode="&#58892;" d="M627.8 381.7L917 667.6c-6.6 13.9-20.7 23.4-36.9 23.4H143.3c-16.3 0-30.3-9.6-36.9-23.4l289.2-285.9c64.1-40.7 168.1-40.7 232.2 0zM102.3 610.8V152l240.4 230-240.4 228.8zM680.6 382L921 152V610.8L680.6 382zM643 346.1c-72.5-46.3-190.1-46.3-262.6 0l-10.8 10.3L107 95.5c6.8-13.2 20.5-22.2 36.3-22.2h736.8c15.8 0 29.5 9 36.3 22.2L653.8 356.4 643 346.1z"  horiz-adv-x="1024" />

    
    <glyph glyph-name="gongdanxitong" unicode="&#58893;" d="M241.4 178c-12.5 0-22.6 10.2-22.6 22.7s10.1 22.7 22.6 22.7H437c5.2 0 9.5 3.8 10.2 9 3.2 25.5 10.3 49.7 20.6 72.1 2.1 4.5-1.2 9.7-6.1 9.7H241.5c-12.5 0-22.6 10.2-22.6 22.7s10.1 22.7 22.6 22.7h255.3c3.3 0 6.5 1.5 8.6 4 45.6 53.1 113.2 86.8 188.6 86.8h11c6.4 0 11.6 5.2 11.6 11.6V722.6c0 25.1-20.3 45.4-45.3 45.4H173.5c-25 0-45.3-20.3-45.3-45.4v-635.4c0-25.1 20.3-45.4 45.3-45.4h309.1c7.7 0 12.3 8.7 7.9 15-22.8 32.4-38 70.4-43.3 111.6-0.7 5.5-5.3 9.6-10.9 9.6H241.4z m0 453.9h362.1c12.5 0 22.6-10.2 22.6-22.7s-10.1-22.7-22.6-22.7H241.4c-12.5 0-22.6 10.2-22.6 22.7s10.1 22.7 22.6 22.7z m0-136.2h362.1c12.5 0 22.6-10.2 22.6-22.7s-10.1-22.7-22.6-22.7H241.4c-12.5 0-22.6 10.2-22.6 22.7s10.1 22.7 22.6 22.7zM694 407.6c-50.7 0-94.7-18.7-130.4-49.5-5.6-4.8-5.4-13.5 0.4-18.2l120.4-96.6c5.9-4.7 14.3-4.2 19.6 1.1l107.2 107.5c5.8 5.9 5 15.7-1.8 20.3-32.3 22.1-73.3 35.4-115.4 35.4zM490.4 198c0-99.8 71.7-182 166.1-199.7 7.8-1.5 15 4.6 15 12.5V181.4c0 5.9-2.7 11.4-7.2 15.1L532 312c-5 4-12.5 2.5-15.6-3.1-16.4-29.4-26-74.8-26-110.9z m231.8-2.4c-3.6-3.6-5.6-8.4-5.6-13.5v-172.3c0-7.4 6.7-13 13.9-11.7 94.9 17.3 167.1 99.7 167.1 199.9 0 44.8-14.9 85.6-39.4 119.2-3.3 4.5-9.8 4.9-13.7 1L722.2 195.6z"  horiz-adv-x="1024" />

    
    <glyph glyph-name="bangzhuwendang" unicode="&#58894;" d="M539.4 567.4H264.5c-1.9 0-3.4 1.5-3.4 3.4V615c0 1.9 1.5 3.4 3.4 3.4h274.9c1.9 0 3.4-1.5 3.4-3.4v-44.2c0-1.9-1.5-3.4-3.4-3.4zM641 456.9H264.5c-1.9 0-3.4 1.5-3.4 3.4v44.2c0 1.9 1.5 3.4 3.4 3.4H641c1.9 0 3.4-1.5 3.4-3.4v-44.2c-0.1-1.9-1.6-3.4-3.4-3.4zM370.2 346.4H261.1c-1.9 0-3.4 1.5-3.4 3.4V394c0 1.9 1.5 3.4 3.4 3.4h109.1c1.9 0 3.4-1.5 3.4-3.4v-44.2c-0.1-1.9-1.6-3.4-3.4-3.4zM851.4 611L699 732.7c-8.1 6.2-18 9.2-27.8 8.7h-459c-32.1 0-58.2-25.8-58.3-57.5v-589c0-31.8 26.1-57.6 58.3-57.6h179.3c8.5 0 12.2 10.5 5.5 15.7-14.7 11.4-29.4 24.2-44.2 38.3l-0.1 0.1c-3.4 3.3-8 5.1-12.8 5.1H231.8c-10 0-18.1 8-18.1 17.8V664.5c0 9.9 8.1 17.8 18.1 17.8h392.9c10 0 18.1-8 18.1-17.8v-87.6c0-12.4 10.2-22.4 22.7-22.4H789c10 0 18.1-8 18.1-17.8v-140.2c0-10.7 4.8-20.8 13-27.7 8.9-7.5 17.8-15.5 26.7-24 1.1-1 2.2-2.1 3.2-3.1 6.3-6.1 17-1.7 17 7.1v230c-0.1 13-6.1 24.6-15.6 32.2zM603 283.5c-35.7 1.7-65.2-26.4-65.2-61.3 0-33.9 27.8-61.4 62.1-61.4 35.2 0 63.7 29 62.1 64.1-1.4 31.3-27.4 57.1-59 58.6z m263.9-64.2c0-0.4 0.1-0.8 0.1-1.2s0-0.8-0.1-1.2c0-0.2-0.1-0.5-0.1-0.8 0-0.1 0-0.2-0.1-0.4 0-0.2-0.1-0.4-0.1-0.5 0-0.2-0.1-0.4-0.1-0.6v-0.1c-0.7-5-2.6-9.6-5.6-13.2-5.6-7.9-11.7-15.4-17.9-22.7-33.3-39.5-71.5-74.7-113.3-100.3-26.7-16.3-55.3-29.5-84.9-35.9-32.5-7-65.2-6.6-97.5 1.6-56 14.3-106.8 49.7-151.2 92-20.6 19.7-40.9 41.2-57.9 65.3-7.4 10.6-7.4 23.1 0 33.7 5.6 7.9 11.7 15.4 17.9 22.7 33.3 39.5 71.5 74.8 113.3 100.3 26.8 16.4 55.3 29.6 84.9 35.9 32.5 7 65.1 6.6 97.5-1.6 56-14.3 106.8-49.7 151.2-92 20.6-19.6 40.9-41.2 57.9-65.3 3-3.6 4.9-8.2 5.6-13.2v-0.1c0.1-0.2 0.1-0.4 0.1-0.6 0-0.2 0.1-0.4 0.1-0.5 0-0.1 0-0.2 0.1-0.4 0.1-0.4 0.1-0.6 0.1-0.9z m-143-5.1c4.7 74.1-57.1 135.1-132.1 130.4-61.8-3.9-112-53.4-115.9-114.5-4.7-74 57.1-135 132.1-130.3 61.9 3.8 112 53.4 115.9 114.4z"  horiz-adv-x="1024" />

    
    <glyph glyph-name="yonghuzhongxin" unicode="&#58895;" d="M514.7 738.4c-119 0-215.8-99.6-215.8-221.9 0-122.3 96.8-221.9 215.8-221.9 119 0 215.8 99.6 215.8 221.9 0 122.3-96.8 221.9-215.8 221.9zM809.1 26c38.9 0 67.1 32.8 57.4 66.4-25.3 87.5-85 161.3-164.2 207.3-51.8-37.4-116.4-60.5-187.6-60.5-71.2 0-135.8 23.2-187.7 60.5-79.1-45.9-138.9-119.7-164.2-207.2-9.7-33.6 18.5-66.4 57.4-66.4h588.9v-0.1z"  horiz-adv-x="1024" />

    
    <glyph glyph-name="xiangmuwenjianjia" unicode="&#58896;" d="M791.2 115c0-24.7-20.1-44.7-44.7-44.7h-559l78.3 368.9c0 24.7 19.9 44.7 44.6 44.7h514.3c24.7 0 44.7-20 44.7-44.7L791.2 115M276.9 517.5H780v43.9c0 24.7-20.1 44.7-44.7 44.7H467v40.5c0 24.7-20 44.7-44.7 44.7H198.7c-24.7 0-44.7-20-44.7-44.7V115l78.2 357.7c0 24.7 20 44.8 44.7 44.8m0 0z"  horiz-adv-x="1024" />

    
    <glyph glyph-name="yunhuancun" unicode="&#58890;" d="M709.1 592.2C666.2 681 576 741.6 471 741.6c-140.5 0-255.8-109.5-264.7-247-103.6-29.6-179-119.8-179-226.3 0-125.8 105-229.3 236.7-236.7h443.7c146.4 0 266.2 125.7 266.2 281 0 149.4-116.9 272.1-264.8 279.6zM500.5 201.3c0-11.9-9.6-21.6-21.6-21.6h-18v0.3c-1.9-0.2-3.9-0.3-5.9 0-73.3 11.4-129.5 74.8-129.5 151.4 0 33.1 10.6 63.8 28.5 88.8l-24.7 34.2c-9.5 13.2-0.1 31.6 16.1 31.6l39.4 0.1 52 0.1c13.2 0 22.8-12.6 19.2-25.3l-14.7-53-10.7-38.5c-4.5-16-25.5-19.9-35.3-6.3L382 381.6c-7.9-15.1-12.5-32.1-12.5-50.3 0-54.3 39.7-99.5 91.6-108H479c11.9 0 21.6-9.7 21.5-21.6v-0.4z m171.2 10.1c9.5-13.2 0.1-31.5-16.1-31.6l-39.4-0.1-52-0.1c-13.2-0.1-22.8 12.5-19.2 25.2l14.7 53 10.7 38.4c4.5 16.1 25.5 19.9 35.3 6.3l13.5-18.6c7.9 15.1 12.5 32.1 12.5 50.3 0 54.3-39.7 99.5-91.6 108h-18c-11.9 0-21.6 9.7-21.6 21.6v0.4c0 11.9 9.6 21.6 21.6 21.6h18v-0.3c1.9 0.2 3.9 0.3 5.9 0 73.3-11.4 129.5-74.8 129.5-151.4 0-33.1-10.6-63.8-28.5-88.8l24.7-33.9z"  horiz-adv-x="1024" />

    
    <glyph glyph-name="wangzhuangdiqiu" unicode="&#58898;" d="M1167.36 680.448l96.768-287.104h-5.248l-96.256 283.008 4.736 4.096zM1159.424 685.312l-4.992-138.496 3.456-0.384 4.608 134.4-3.072 4.48zM1154.304 542.208L1132.288 226.56l3.456-0.256 21.632 311.424-3.072 4.48zM684.8-94.976h216.832v-4.608H684.8v4.608zM627.2-80.128l37.12-12.8 2.56 4.608-35.2 11.52-4.48-3.328zM609.024 820.864l-148.608-59.136-1.536 1.408 150.144 62.976v-5.248zM627.456 831.36l49.536 29.312v2.56l-53.376-29.44 3.84-2.432zM627.072 831.488l268.544 20.608v-2.816L627.072 827.776v3.712zM624.256 821.12l190.464-77.824 1.28 4.224-190.592 77.696-1.152-2.944v-1.152zM900.096 849.536L828.544 748.8l3.84-2.944 71.552 101.12-3.84 2.56zM286.848 506.624l32.384-28.8 3.712 6.016-32.384 25.728-3.712-2.944zM417.92 743.68l51.456-265.216 1.024-1.664 3.072 3.072-53.376 265.984-2.176-2.176zM740.992 530.816l131.456-157.44 1.92 0.512-2.048 3.84-130.56 154.624zM739.84 532.224l-270.208-51.968-0.512-1.92 4.48 0.128 267.392 52.352zM602.24 694.912l-32.128-295.936h3.456l31.744 295.936h-3.072zM914.176 841.984l124.032-128.896 2.304 2.304-126.336 130.56v-3.968zM835.84 740.736l200.704-29.696v-2.432L835.84 737.28v3.456zM1056.384 704.896l92.032-13.312v-4.608l-93.44 15.744 1.408 2.176zM1049.984 698.624l98.432-147.456 2.176 2.688-98.176 148.352-2.432-3.584zM818.816 734.976l-81.28-204.16h3.456l80.64 204.16h-2.816zM1044.736 708.48L871.68 373.76h3.328l172.544 334.72h-2.816zM1158.784 537.472l96.64-144.128 2.304 2.048-93.184 142.08h-5.76zM738.048 530.816l-110.592-438.784h2.688l110.848 438.784zM581.888 386.56l312.192 101.12 2.432-3.328-312.32-100.864-2.304 3.072zM332.16 472.96l73.856-356.992h3.584l-73.856 356.992h-3.584zM468.096 472.96l-36.864-340.864h3.2l37.76 340.864h-4.096zM562.56 373.12l-119.808-234.112h3.584l118.016 230.528-1.792 3.584zM442.496 131.712l428.928 243.84-0.256-3.584-428.928-243.84-0.384 1.92zM876.032 376.32l101.12-408.832-3.456 1.024-101.12 408.96 1.92-0.128zM341.376 471.168L561.92 385.664l-2.048-2.944-220.544 85.504 2.048 2.944zM1198.336 249.088l1.408 3.584L878.208 373.76v-3.456M1261.696 375.552l-57.472-116.096 3.072-3.072 58.496 119.168h-4.096zM1196.928 241.92l-32.512-155.776h4.224L1199.104 241.92h-2.176zM1134.08 216.832l23.424-130.688h3.712l-23.424 130.688H1134.08zM448.64 126.464l326.272-10.496v-4.096l-326.272 11.648v2.944zM417.536 106.24L623.36 89.216v-2.688l-205.824 16.256V106.24zM410.624 101.632l18.304-89.856h2.176l-16.768 89.856h-3.712zM412.8 100.992l202.624-171.264 2.176 2.688-202.496 171.904-2.304-3.328zM626.56 81.024l-3.712-144h3.456l3.328 146.56zM633.216 83.328L808.96-12.032l3.456 3.2-179.2 98.048v-5.888zM827.008-8.32l207.104 78.08v-3.84l-207.104-79.232v4.992zM1053.056 74.112l95.488 2.176v-2.176l-95.488-4.352v4.352zM1035.904 65.92l-57.6-88.576 4.736-2.432 55.936 91.008h-3.072zM630.528-65.92l179.328 50.944 2.56-3.2-181.888-52.096v4.352zM821.376-15.872l79.232-71.424v4.224l-74.88 67.2h-4.352zM431.872 744.704c0-7.168-5.76-12.928-12.928-12.928s-12.928 5.76-12.928 12.928 5.76 12.928 12.928 12.928 12.928-5.76 12.928-12.928zM618.496 705.536c0-8.064-6.528-14.592-14.592-14.592-8.064 0-14.72 6.528-14.72 14.592 0 8.064 6.528 14.592 14.72 14.592 7.936 0.128 14.592-6.528 14.592-14.592zM628.48 828.8c0-6.4-5.12-11.52-11.52-11.52s-11.52 5.12-11.52 11.52 5.12 11.52 11.52 11.52c6.4-0.128 11.52-5.248 11.52-11.52zM699.008 869.248c0-7.424-6.016-13.312-13.312-13.312-7.424 0-13.312 6.016-13.312 13.312 0 7.424 6.016 13.312 13.312 13.312 7.296 0.128 13.312-5.888 13.312-13.312zM835.328 740.736c0-5.888-4.736-10.624-10.624-10.624-5.888 0-10.624 4.736-10.624 10.624 0 5.888 4.736 10.624 10.624 10.624 5.888 0.128 10.624-4.736 10.624-10.624zM963.072 787.584c0-8.064-6.528-14.464-14.464-14.464-8.064 0-14.464 6.528-14.464 14.464 0 8.064 6.528 14.464 14.464 14.464 7.936 0.128 14.464-6.4 14.464-14.464zM1057.664 708.48c0-6.4-5.248-11.52-11.52-11.52-6.4 0-11.52 5.12-11.52 11.52s5.12 11.52 11.52 11.52 11.52-5.12 11.52-11.52zM1149.696 226.432c0-8.576-7.04-15.616-15.616-15.616-8.576 0-15.616 7.04-15.616 15.616 0 8.576 7.04 15.616 15.616 15.616 8.576-0.128 15.616-7.04 15.616-15.616zM926.336 490.752c0-9.856-8.064-17.92-17.92-17.92s-17.92 8.064-17.92 17.92 8.064 17.92 17.92 17.92c9.856 0.128 17.92-7.936 17.92-17.92zM1160.448 690.048z m-14.464 0c0-8.064 6.528-14.464 14.464-14.464s14.464 6.528 14.464 14.464c0 8.064-6.528 14.464-14.464 14.464s-14.464-6.4-14.464-14.464M1170.432 546.56c0-8.704-7.04-15.872-15.744-15.872-8.704 0-15.872 7.04-15.872 15.872 0 8.704 7.04 15.744 15.872 15.744 8.704 0.128 15.744-6.912 15.744-15.744zM1210.112 250.88c0-6.144-4.992-11.136-11.136-11.136-6.144 0-11.136 4.992-11.136 11.136 0 6.144 4.992 11.008 11.136 11.008 6.272 0.128 11.136-4.864 11.136-11.008zM1278.592 382.592c0-7.68-6.144-13.824-13.824-13.824-7.68 0-13.824 6.144-13.824 13.824 0 7.68 6.144 13.824 13.824 13.824 7.552 0 13.824-6.144 13.824-13.824zM881.536 375.168c0-4.48-3.584-8.192-8.192-8.192-4.48 0-8.064 3.584-8.064 8.192 0 4.48 3.584 8.192 8.064 8.192 4.48-0.128 8.192-3.712 8.192-8.192zM747.392 530.816c0-4.48-3.584-8.192-8.192-8.192-4.48 0-8.064 3.584-8.064 8.192 0 4.48 3.584 8.192 8.064 8.192 4.48-0.128 8.192-3.712 8.192-8.192zM923.136-91.776c0-7.04-5.76-12.8-12.8-12.8s-12.8 5.76-12.8 12.8 5.76 12.8 12.8 12.8 12.8-5.76 12.8-12.8zM986.112-30.976c0-6.784-5.504-12.416-12.416-12.416-6.784 0-12.416 5.504-12.416 12.416 0 6.784 5.504 12.416 12.416 12.416 6.912 0 12.416-5.504 12.416-12.416zM1042.816 72.576z m-10.752 0c0-5.888 4.736-10.624 10.624-10.624 5.888 0 10.624 4.736 10.624 10.624 0 5.888-4.736 10.624-10.624 10.624-5.76 0.128-10.624-4.736-10.624-10.624M1175.04 75.648c0-7.296-5.888-13.184-13.184-13.184-7.296 0-13.184 5.888-13.184 13.184 0 7.296 5.888 13.184 13.184 13.184 7.168 0 13.184-5.888 13.184-13.184zM828.928-12.288c0-5.76-4.736-10.496-10.496-10.496-5.76 0-10.496 4.736-10.496 10.496 0 5.76 4.736 10.496 10.496 10.496 5.888-0.128 10.496-4.736 10.496-10.496zM293.888 240.512c0-8.064-6.528-14.464-14.464-14.464-8.064 0-14.464 6.528-14.464 14.464 0 8.064 6.528 14.464 14.464 14.464 7.936 0.128 14.464-6.4 14.464-14.464zM444.544 1.664c0-7.04-5.76-12.8-12.8-12.8s-12.8 5.76-12.8 12.8 5.76 12.8 12.8 12.8 12.8-5.632 12.8-12.8zM421.504 108.8c0-6.016-4.864-10.88-10.88-10.88s-10.88 4.864-10.88 10.88 4.864 11.008 10.88 11.008c6.016-0.128 10.88-4.992 10.88-11.008zM450.816 128.128c0-8.832-7.168-16-16-16s-16 7.168-16 16 7.168 15.872 16 15.872c8.832 0.128 16-7.04 16-15.872zM279.296 517.504z m-14.464 0c0-5.248 2.816-9.984 7.296-12.544 4.48-2.56 9.984-2.56 14.464 0 4.48 2.56 7.296 7.424 7.296 12.544 0 5.248-2.816 9.984-7.296 12.544-4.48 2.56-9.984 2.56-14.464 0-4.608-2.56-7.296-7.424-7.296-12.544M636.032 87.296a8.576 8.576 0 1 0-17.152 0 8.576 8.576 0 0 0 17.152 0zM689.024-90.752c0-7.168-5.888-13.056-13.056-13.056s-13.056 5.888-13.056 13.056 5.888 13.056 13.056 13.056c7.168-0.128 13.056-5.888 13.056-13.056zM633.856-71.68c0-5.76-4.608-10.496-10.496-10.496-5.76 0-10.496 4.736-10.496 10.496 0 5.76 4.608 10.368 10.496 10.368 5.76 0.128 10.496-4.608 10.496-10.368zM332.672 475.648z m-15.744 0c0-8.704 7.04-15.616 15.616-15.616 8.704 0 15.616 7.04 15.616 15.616 0 8.704-7.04 15.616-15.616 15.616-8.576 0.128-15.616-6.912-15.616-15.616M480.256 477.824c0-5.504-4.48-10.112-10.112-10.112-5.504 0-10.112 4.48-10.112 10.112s4.48 10.112 10.112 10.112c5.504 0 10.112-4.608 10.112-10.112zM585.344 382.72c0-9.344-7.552-16.896-16.896-16.896-9.344 0-17.024 7.552-17.024 16.896 0 9.344 7.552 16.896 17.024 16.896 9.344 0 16.896-7.552 16.896-16.896zM806.4 113.408c0-9.472-7.68-17.28-17.28-17.28-9.472 0-17.28 7.68-17.28 17.28 0 9.472 7.68 17.28 17.28 17.28 9.472 0 17.28-7.68 17.28-17.28zM920.32 854.656c0-7.168-5.888-13.056-13.056-13.056s-13.056 5.888-13.056 13.056 5.888 13.056 13.056 13.056c7.296 0 13.056-5.888 13.056-13.056zM427.264 750.976L674.56 866.688l2.944-4.096-247.936-115.712-2.304 4.096zM696.448 869.248l199.168-13.568v-3.584L696.448 865.152v4.096zM913.408 842.752l235.008-151.424 2.176 2.944L915.584 847.488l-2.176-4.736zM1265.792 372.096l-97.024-285.952h-4.352l97.024 285.952h4.352zM920.576-90.496l236.032 155.904-3.584 2.304-232.448-154.624v-3.584zM438.912-7.68l175.872-67.328v5.248L441.6-3.328l-2.688-4.352zM281.344 229.12L422.4 7.936l3.968 2.176L285.312 229.12h-3.968zM277.248 504.96h2.816v-254.976h-2.816V504.96zM284.16 527.488l127.744 209.664h4.224L287.744 523.904l-3.584 3.584zM412.928 734.976l-78.976-247.424 5.76-2.176 77.44 249.6h-4.224zM677.504 860.032l-70.4-141.952 3.712-2.688 71.68 144.64h-4.992zM616.32 709.888l322.688 75.904v-4.352l-322.688-76.416v4.864zM613.248 701.568L894.72 502.016l-3.072-4.352L613.248 696.32v5.248zM329.344 463.488l-49.28-213.504h5.504l48 213.504h-4.224zM909.056 842.624L939.52 797.696h5.12l-31.232 49.536-4.352-4.608zM959.488 779.648l188.928-88.32v4.48L959.488 785.792v-6.144zM945.408 775.168l-37.248-267.776h5.376L949.76 775.168h-4.352zM915.584 476.544L1130.112 227.84l4.48 2.56-214.528 247.936-4.48-1.792zM287.616 232.704L422.4 132.096l3.968 2.688-136.064 100.608-2.688-2.688zM1143.168 238.336l115.584 136.064 3.584-2.432-116.224-135.936-2.944 2.304zM1127.168 216.32l-82.816-134.144v-4.992l85.504 135.936-2.688 3.2zM805.504 118.528l317.312 104.576v-4.48l-317.312-104.192v4.096zM982.784-24.704l168.448 97.408 2.048-4.096-168.448-96.256-2.048 2.944zM684.8-90.368L964.352-32v-4.224l-276.864-58.752-2.688 4.608zM342.016 485.376l248.96 213.12 2.432-2.56-247.296-213.888-4.096 3.328zM868.736 370.816L793.6 128.512h4.096l73.6 240-2.56 2.304zM427.776 739.712L588.8 705.024v4.48l-157.952 35.2-3.072-4.992zM922.752 495.872L1151.616 546.56l2.944-3.84-231.808-50.816v3.968zM797.696 105.6l168.064-131.328V-21.76L802.304 107.392l-4.608-1.792zM682.496-81.024l98.56 182.016h3.968L685.696-83.2l-3.2 2.176zM432.896 113.664h3.328v-101.888h-3.328v101.888zM575.488 370.432l201.6-246.912 3.456 2.176L579.84 373.248l-4.352-2.816z"  horiz-adv-x="1638" />

    
    <glyph glyph-name="fanhui" unicode="&#58881;" d="M940.749-1.124s-8.767-22.572-20.438 0c0 0-130.448 393.71-448.442 294.543v-122.214s-5.1-71.856-67.774-25.058l-312.667 269.9s-66.294 36.076 4.027 85.421l315.99 271.499s47.506 33.882 58.943-21.683l0.351-131.87c0.06-0.059 592.696-28.434 470.01-620.538z"  horiz-adv-x="1024" />

    


  </font>
</defs>
</svg>
